<svg xmlns="http://www.w3.org/2000/svg" width="119" height="60" viewBox="0 0 119 60" fill="none"><path d="M65.2364 41.9739V58.9797H74.2553V52.1253L65.2364 41.9739Z" fill="#6D5A9C"></path><path d="M74.2553 27.6441C74.2553 17.815 82.254 9.81626 92.0832 9.81626C100.576 9.81626 107.687 15.7894 109.47 23.7527H118.614C116.718 10.7921 105.561 0.800293 92.0832 0.800293C79.7731 0.800293 69.3969 9.1391 66.2447 20.4586L74.3972 29.7791C74.3115 29.0783 74.2553 28.3686 74.2553 27.6441Z" fill="#6D5A9C"></path><path d="M118.886 26.7896H116.697H109.87H86.2519V35.8085H107.915C104.946 41.5392 98.9731 45.472 92.0862 45.472C86.1544 45.472 80.9057 42.5475 77.6618 38.0795L65.4936 24.1637C65.4907 24.1785 65.4907 24.1963 65.4877 24.211L54.2599 11.3007C48.5351 4.71244 40.8498 0.735241 32.6263 0.102438C31.9965 0.0551258 31.3637 0.0225985 30.7161 0.0078134C22.6346 -0.175522 15.0202 2.87317 9.15941 8.55657C3.33112 14.2045 0.0783961 21.7094 0.00151355 29.6845C-0.0783261 37.7542 3.00289 45.3538 8.67446 51.0845C14.349 56.8152 21.919 59.9733 29.9857 59.9733C38.4044 59.9733 46.0246 56.4869 51.4744 50.8804C52.9293 55.5052 57.2583 58.8733 62.3592 58.8733V49.8543C61.0433 49.8543 59.9729 48.7839 59.9729 47.468V36.045L50.9658 25.9025L50.954 29.9861C50.954 41.5481 41.5477 50.9544 29.9857 50.9544C24.3437 50.9544 19.0536 48.7455 15.0823 44.7387C11.114 40.7319 8.96129 35.4182 9.01748 29.7732C9.0707 24.2258 11.3506 18.9889 15.4342 15.0295C19.4439 11.141 24.6306 9.01786 30.0715 9.01786C30.2193 9.01786 30.3672 9.02082 30.5121 9.02082C30.9852 9.03265 31.4583 9.05335 31.9314 9.09179C37.6947 9.53534 43.3544 12.4983 47.4558 17.2147L48.9107 18.8884L55.9927 27.035L69.7725 42.5475C74.5924 49.739 82.7922 54.488 92.0832 54.488C106.886 54.488 118.93 42.447 118.93 27.6441C118.93 27.3573 118.895 27.0764 118.886 26.7896Z" fill="#88B574"></path></svg>