<svg xmlns="http://www.w3.org/2000/svg" width="38" height="21" viewBox="0 0 38 21" fill="none"><path d="M1.59421 10.6354C5.09932 4.06199 11.8365 -2.2099e-06 19.3163 -1.556e-06C26.796 -9.02096e-07 33.7407 4.37865 37.1148 10.7774L31.5569 20.4956L31.5569 20.1025C31.5569 13.3543 26.0644 7.87284 19.3272 7.87284C16.6847 7.87284 14.1951 8.71363 12.1423 10.1877C12.0003 10.2969 11.8584 10.4061 11.7274 10.5044C11.6728 10.5481 11.6182 10.5918 11.5636 10.6354C10.2314 11.6946 9.22682 13.0268 8.51707 14.5555L-1.65313e-05 14.5555C0.404002 13.1796 0.949969 11.8693 1.61605 10.6354L1.59421 10.6354Z" fill="#8FC368"></path></svg>