<svg width="25" height="25" viewBox="0 0 25 25" fill="none" xmlns="http://www.w3.org/2000/svg">
<path fill-rule="evenodd" clip-rule="evenodd" d="M2.74448 0.803556C3.27063 0.288427 3.97722 0 4.71305 0C5.44887 0 6.15546 0.288427 6.68161 0.803556C6.68401 0.805905 6.6864 0.808268 6.68877 0.810644L10.0751 4.20176C10.0769 4.20359 10.0787 4.20543 10.0805 4.20727C10.5948 4.7313 10.8829 5.43665 10.8829 6.17138C10.8829 6.90612 10.5948 7.61146 10.0805 8.1355L9.44494 7.50999L10.0704 8.14561C9.97619 8.2386 9.90137 8.34943 9.85029 8.47164C9.79922 8.59386 9.77291 8.72502 9.77291 8.85751C9.77291 8.98999 9.79922 9.12116 9.85029 9.24337C9.90137 9.36559 9.97619 9.47641 10.0704 9.56941C10.072 9.57094 10.0735 9.57247 10.0751 9.57401L15.4177 14.9243C15.6105 15.1115 15.8686 15.2163 16.1373 15.2163C16.4071 15.2163 16.6662 15.1107 16.8593 14.922C17.3825 14.4076 18.0864 14.1194 18.8196 14.1194C19.5533 14.1194 20.2576 14.4079 20.7809 14.9229L20.7831 14.9251L24.1872 18.2984C24.1907 18.3018 24.1942 18.3053 24.1976 18.3088C24.712 18.8357 25 19.5433 25 20.2802C25 21.0171 24.712 21.7247 24.1976 22.2516C24.1929 22.2564 24.1882 22.2611 24.1834 22.2658L23.3869 23.0457C22.3264 24.1193 20.9296 24.7954 19.4306 24.9605C17.9287 25.1259 16.4159 24.7685 15.1463 23.9483L15.6293 23.1984L15.1309 23.9381C9.59012 20.194 4.81475 15.4241 1.06166 9.88509C1.05779 9.87937 1.05398 9.87361 1.05024 9.8678C0.231181 8.5964 -0.125758 7.08135 0.0394413 5.5774C0.204339 4.07619 0.879431 2.67743 1.95146 1.61543L2.73028 0.817774C2.73496 0.812981 2.73969 0.808242 2.74448 0.803556ZM16.1199 22.4533C17.0439 23.0478 18.1438 23.3067 19.2357 23.1864C20.3305 23.0658 21.3505 22.5714 22.1241 21.7863C22.1278 21.7825 22.1316 21.7787 22.1354 21.775L22.9291 20.9978C23.1142 20.805 23.2177 20.5479 23.2177 20.2802C23.2177 20.0118 23.1137 19.754 22.9276 19.5611L19.5317 16.1959C19.5313 16.1956 19.531 16.1953 19.5307 16.195C19.3408 16.0086 19.0855 15.9042 18.8196 15.9042C18.5532 15.9042 18.2975 16.0089 18.1075 16.1959L17.4829 15.5594L18.1059 16.1975C17.5797 16.7127 16.8731 17.0011 16.1373 17.0011C15.4015 17.0011 14.6949 16.7127 14.1687 16.1975C14.1663 16.1952 14.1639 16.1928 14.1616 16.1905L8.81691 10.8382C8.5556 10.5796 8.34803 10.2718 8.20621 9.93242C8.06393 9.59196 7.99066 9.22658 7.99066 8.85751C7.99066 8.48844 8.06393 8.12305 8.20621 7.7826C8.34734 7.44489 8.55359 7.13839 8.81311 6.88063C8.99747 6.69078 9.10069 6.43635 9.10069 6.17138C9.10069 5.90572 8.99692 5.65065 8.81164 5.46064L5.43264 2.07681C5.23982 1.88957 4.98174 1.7848 4.71305 1.7848C4.44577 1.7848 4.18899 1.88847 3.9965 2.07385L3.22041 2.86872C3.2167 2.87253 3.21294 2.8763 3.20916 2.88004C2.42516 3.65475 1.93144 4.67617 1.81101 5.77255C1.69094 6.86562 1.94922 7.96673 2.54249 8.89185C6.16538 14.2363 10.7736 18.8391 16.1199 22.4533Z" fill="white"/>
</svg>
