<svg xmlns="http://www.w3.org/2000/svg" width="119" height="84" viewBox="0 0 119 84" fill="none"><path d="M10.1382 75.2878C10.499 75.2878 10.842 75.3352 11.1613 75.4268C11.4837 75.5185 11.7646 75.6604 12.0071 75.8526C12.2495 76.0448 12.4447 76.2873 12.5896 76.583C12.7345 76.8787 12.8055 77.2276 12.8055 77.6357C12.8055 78.0438 12.7345 78.3927 12.5896 78.6914C12.4447 78.99 12.2525 79.2384 12.0071 79.4395C11.7646 79.6376 11.4807 79.7855 11.1613 79.8831C10.842 79.9777 10.499 80.028 10.1382 80.028H8.10083V82.7395C8.10083 82.8194 8.07126 82.8903 8.01212 82.9495C7.95298 83.0086 7.88201 83.0382 7.80217 83.0382H7.34975C7.26695 83.0382 7.19894 83.0086 7.1398 82.9495C7.08066 82.8903 7.05109 82.8194 7.05109 82.7395V75.5895C7.05109 75.5096 7.08066 75.4386 7.1398 75.3795C7.19894 75.3204 7.26991 75.2908 7.34975 75.2908H10.1382V75.2878ZM8.10083 79.0285H10.082C10.6143 79.0285 11.0253 78.9132 11.3151 78.6855C11.6049 78.4578 11.7528 78.1059 11.7528 77.6328C11.7528 77.1596 11.6079 76.8166 11.3151 76.6037C11.0224 76.3908 10.6113 76.2814 10.082 76.2814H8.10083V79.0285V79.0285Z" fill="#898DA0"></path><path d="M13.4915 81.5833C13.4915 81.2876 13.5506 81.0303 13.6689 80.8086C13.7872 80.5868 13.9498 80.4005 14.1568 80.2438C14.3638 80.09 14.6063 79.9628 14.8813 79.8682C15.1592 79.7706 15.452 79.6967 15.7624 79.6464L17.3238 79.3921V79.2472C17.3238 78.8717 17.1996 78.5878 16.9541 78.4015C16.7057 78.2123 16.3982 78.1206 16.0286 78.1206C15.7033 78.1206 15.4579 78.1798 15.2923 78.298C15.1267 78.4163 14.9848 78.5553 14.8665 78.7179C14.8221 78.7771 14.7748 78.8185 14.7216 78.8392C14.6683 78.8599 14.6003 78.8717 14.5116 78.8717H14.1804C14.0976 78.8717 14.0267 78.8421 13.9646 78.783C13.9025 78.7238 13.8729 78.6529 13.8818 78.573C13.8966 78.4104 13.9616 78.2448 14.074 78.0763C14.1893 77.9077 14.3431 77.7539 14.5382 77.6209C14.7334 77.4878 14.9581 77.3784 15.2124 77.2956C15.4667 77.2099 15.7388 77.1685 16.0256 77.1685C16.3568 77.1685 16.6643 77.2158 16.9512 77.3133C17.235 77.408 17.4775 77.5499 17.6816 77.7332C17.8856 77.9166 18.0423 78.1472 18.1576 78.4193C18.273 78.6913 18.3291 79.0048 18.3291 79.3596V82.7365C18.3291 82.8164 18.2996 82.8873 18.2404 82.9465C18.1813 83.0056 18.1103 83.0352 18.0305 83.0352H17.6224C17.5396 83.0352 17.4716 83.0056 17.4125 82.9465C17.3533 82.8873 17.3238 82.8164 17.3238 82.7365V82.2812C17.2587 82.4201 17.1552 82.5443 17.0133 82.6508C16.8743 82.7572 16.7117 82.8489 16.5313 82.9228C16.3509 82.9967 16.1616 83.05 15.9665 83.0884C15.7713 83.1239 15.588 83.1446 15.4194 83.1446C15.1326 83.1446 14.8665 83.1032 14.627 83.0234C14.3874 82.9406 14.1834 82.8341 14.0178 82.6951C13.8522 82.5591 13.7221 82.3935 13.6304 82.2013C13.5388 82.0121 13.4915 81.8051 13.4915 81.5833ZM15.5288 82.1924C15.795 82.1924 16.0375 82.151 16.2592 82.0712C16.481 81.9884 16.6703 81.879 16.8299 81.7341C16.9896 81.5892 17.1109 81.4177 17.1966 81.2196C17.2824 81.0215 17.3238 80.7997 17.3238 80.5572V80.2792L16.0168 80.4892C15.5525 80.5631 15.1829 80.6814 14.9108 80.844C14.6388 81.0067 14.5028 81.2166 14.5028 81.4739C14.5028 81.5567 14.5205 81.6365 14.5589 81.7164C14.5944 81.7962 14.6536 81.876 14.7364 81.95C14.8162 82.0239 14.9227 82.083 15.0528 82.1274C15.177 82.1717 15.3366 82.1924 15.5288 82.1924Z" fill="#898DA0"></path><path d="M24.0628 82.083C24.1426 82.083 24.2136 82.1125 24.2727 82.1717C24.3319 82.2308 24.3615 82.3018 24.3615 82.3816V82.7365C24.3615 82.8163 24.3319 82.8873 24.2727 82.9464C24.2136 83.0056 24.1426 83.0351 24.0628 83.0351H19.8786C19.7958 83.0351 19.7278 83.0056 19.6687 82.9464C19.6095 82.8873 19.58 82.8163 19.58 82.7365V82.3047C19.58 82.2456 19.5918 82.1924 19.6184 82.1451C19.645 82.0977 19.6835 82.0445 19.7337 81.9854L22.7765 78.2329H19.988C19.9052 78.2329 19.8372 78.2033 19.7781 78.1442C19.7189 78.0851 19.6894 78.0141 19.6894 77.9343V77.5794C19.6894 77.4966 19.7189 77.4286 19.7781 77.3695C19.8372 77.3103 19.9082 77.2808 19.988 77.2808H23.841C23.9209 77.2808 23.9918 77.3103 24.051 77.3695C24.1101 77.4286 24.1397 77.4996 24.1397 77.5794V78.0111C24.1397 78.0762 24.1219 78.1324 24.0894 78.1767C24.0569 78.2211 24.0214 78.2714 23.983 78.3305L20.9165 82.083H24.0628V82.083Z" fill="#898DA0"></path><path d="M33.5283 79.2264C33.543 79.1614 33.5785 79.1022 33.6377 79.0549C33.6968 79.0076 33.756 78.9839 33.8151 78.9839H34.3237C34.4035 78.9839 34.4686 79.0106 34.5129 79.0608C34.5573 79.1111 34.575 79.1673 34.5691 79.2264C34.5543 79.5369 34.4834 79.9036 34.3592 80.3294C34.232 80.7552 34.031 81.1662 33.75 81.5625L34.9003 82.692C34.9447 82.7364 34.9683 82.7867 34.9683 82.8458C34.9683 82.8961 34.9506 82.9434 34.9121 82.9789C34.8737 83.0173 34.8264 83.0351 34.7673 83.0351H33.9482C33.8654 83.0351 33.8092 83.0232 33.7707 82.9966C33.7323 82.97 33.6998 82.9464 33.6702 82.9257L33.0492 82.3165C32.7535 82.5679 32.4105 82.7689 32.0202 82.9197C31.6299 83.0705 31.1833 83.1474 30.6806 83.1474C30.3258 83.1474 29.9917 83.1001 29.6782 83.0084C29.3648 82.9168 29.0927 82.7808 28.8591 82.6033C28.6255 82.4259 28.4451 82.2101 28.3121 81.9498C28.179 81.6926 28.114 81.3939 28.114 81.0539C28.114 80.8114 28.1554 80.5866 28.2411 80.3856C28.3269 80.1815 28.4392 79.9923 28.5782 79.8149C28.7172 79.6374 28.8798 79.4748 29.0602 79.327C29.2406 79.1791 29.4298 79.0431 29.6309 78.9159C29.4328 78.6942 29.2642 78.5019 29.1312 78.3364C28.9981 78.1708 28.8946 78.014 28.8207 77.8662C28.7468 77.7183 28.6935 77.5734 28.6669 77.4345C28.6373 77.2955 28.6226 77.1476 28.6226 76.9909C28.6226 76.6952 28.6876 76.435 28.8177 76.2103C28.9478 75.9855 29.1134 75.7963 29.3145 75.6395C29.5185 75.4828 29.7433 75.3675 29.9887 75.2906C30.2371 75.2137 30.4766 75.1753 30.7132 75.1753C30.9497 75.1753 31.1863 75.2167 31.4258 75.3024C31.6653 75.3882 31.8842 75.5065 32.0793 75.6632C32.2745 75.817 32.4342 76.0092 32.5554 76.2339C32.6766 76.4586 32.7387 76.7129 32.7387 76.9909C32.7387 77.4345 32.6057 77.8218 32.3395 78.1589C32.0734 78.496 31.7186 78.8095 31.278 79.1052L32.9605 80.7759C33.2059 80.3649 33.3952 79.8474 33.5283 79.2264ZM30.6836 82.148C30.9704 82.148 31.2543 82.1036 31.5323 82.009C31.8073 81.9173 32.0645 81.7724 32.3011 81.5713L30.3761 79.6552C30.2223 79.7528 30.0715 79.8533 29.9296 79.9598C29.7847 80.0662 29.6575 80.1786 29.5481 80.2909C29.4387 80.4063 29.347 80.5245 29.2761 80.6517C29.2051 80.7759 29.1696 80.909 29.1696 81.0509C29.1696 81.2431 29.2169 81.4087 29.3086 81.5477C29.4003 81.6867 29.5215 81.802 29.6693 81.8907C29.8172 81.9794 29.9798 82.0445 30.1632 82.0829C30.3376 82.1302 30.5121 82.148 30.6836 82.148ZM29.6753 77.0027C29.6753 77.1121 29.69 77.2156 29.7196 77.3132C29.7492 77.4078 29.7995 77.5084 29.8704 77.6119C29.9414 77.7154 30.0301 77.8277 30.1425 77.949C30.2519 78.0702 30.3849 78.2122 30.5417 78.3748C30.6747 78.3009 30.8078 78.2181 30.9468 78.1264C31.0828 78.0347 31.207 77.9342 31.3164 77.8218C31.4288 77.7124 31.5175 77.5882 31.5885 77.4522C31.6594 77.3162 31.6919 77.1654 31.6919 77.0027C31.6919 76.9081 31.6683 76.8105 31.621 76.71C31.5737 76.6095 31.5057 76.5207 31.4229 76.4439C31.3371 76.367 31.2336 76.3019 31.1124 76.2516C30.9911 76.2014 30.861 76.1748 30.7191 76.1748C30.447 76.1748 30.2046 76.2546 29.9946 76.4113C29.7817 76.5681 29.6753 76.7662 29.6753 77.0027Z" fill="#898DA0"></path><path d="M41.8079 75.2878C42.1687 75.2878 42.5117 75.3322 42.8311 75.4209C43.1534 75.5096 43.4343 75.6456 43.6768 75.8319C43.9192 76.0153 44.1144 76.2518 44.2593 76.5416C44.4042 76.8285 44.4752 77.1774 44.4752 77.5825C44.4752 78.1798 44.3273 78.6559 44.0286 79.0107C43.73 79.3656 43.3485 79.6169 42.8813 79.7648L44.552 82.6745C44.5727 82.7188 44.5846 82.7602 44.5846 82.7957C44.5846 82.8608 44.5609 82.9199 44.5136 82.9672C44.4663 83.0145 44.4071 83.0382 44.3421 83.0382H43.866C43.7182 83.0382 43.6087 82.9998 43.5407 82.9288C43.4698 82.8549 43.4195 82.7928 43.3899 82.7395L41.7843 79.9156H39.8799V82.7395C39.8799 82.8194 39.8504 82.8903 39.7912 82.9495C39.7321 83.0086 39.6611 83.0382 39.5813 83.0382H39.1289C39.049 83.0382 38.978 83.0086 38.9189 82.9495C38.8598 82.8903 38.8302 82.8194 38.8302 82.7395V75.5895C38.8302 75.5096 38.8598 75.4386 38.9189 75.3795C38.978 75.3204 39.049 75.2908 39.1289 75.2908H41.8079V75.2878ZM39.8799 78.9161H41.7517C42.284 78.9161 42.695 78.8126 42.9848 78.5997C43.2776 78.3898 43.4225 78.0467 43.4225 77.5766C43.4225 77.1035 43.2776 76.7693 42.9848 76.5741C42.6921 76.379 42.281 76.2814 41.7517 76.2814H39.8799V78.9161Z" fill="#898DA0"></path><path d="M45.5722 79.605C45.6017 79.265 45.6816 78.9486 45.8147 78.6529C45.9477 78.3572 46.1192 78.0999 46.3351 77.8781C46.548 77.6564 46.8053 77.4849 47.1039 77.3577C47.4026 77.2335 47.7367 77.1685 48.1063 77.1685C48.5055 77.1685 48.8604 77.2335 49.1738 77.3636C49.4873 77.4937 49.7534 77.68 49.9752 77.9225C50.197 78.165 50.3655 78.4607 50.4838 78.8067C50.6021 79.1526 50.6612 79.54 50.6612 79.9688V80.2674C50.6612 80.3473 50.6316 80.4182 50.5725 80.4774C50.5134 80.5365 50.4424 80.5661 50.3626 80.5661H46.5539V80.6311C46.5687 81.1338 46.7225 81.5182 47.0123 81.7873C47.305 82.0564 47.6658 82.1924 48.1034 82.1924C48.5085 82.1924 48.8131 82.1363 49.0171 82.0209C49.2211 81.9056 49.3838 81.7785 49.508 81.6395C49.5671 81.5803 49.6203 81.5389 49.6647 81.5182C49.7091 81.4975 49.7741 81.4857 49.8628 81.4857H50.194C50.2768 81.4857 50.3507 81.5153 50.4158 81.5744C50.4808 81.6336 50.5074 81.7045 50.4927 81.7844C50.472 81.9174 50.4069 82.0623 50.3034 82.222C50.1999 82.3817 50.0521 82.5266 49.8569 82.6656C49.6617 82.8016 49.4163 82.9169 49.1265 83.0086C48.8338 83.1002 48.4937 83.1476 48.1034 83.1476C47.7338 83.1476 47.4026 83.0825 47.1069 82.9554C46.8112 82.8252 46.5569 82.6478 46.3381 82.4231C46.1192 82.1983 45.9448 81.9322 45.8117 81.6247C45.6786 81.3172 45.5988 80.986 45.5692 80.6223C45.5337 80.2822 45.5337 79.9421 45.5722 79.605ZM46.5569 79.6376H49.6677V79.605C49.6677 79.1556 49.5257 78.7948 49.2418 78.5257C48.958 78.2566 48.5795 78.1206 48.1063 78.1206C47.8934 78.1206 47.6924 78.1561 47.509 78.2271C47.3257 78.298 47.1631 78.3956 47.0211 78.5257C46.8821 78.6558 46.7698 78.8126 46.6899 78.9959C46.6101 79.1792 46.5628 79.3833 46.5569 79.605V79.6376Z" fill="#898DA0"></path><path d="M52.743 80.5454C52.7726 80.8411 52.8376 81.0924 52.9352 81.2994C53.0358 81.5064 53.157 81.6749 53.3019 81.808C53.4468 81.9411 53.6065 82.0386 53.7839 82.1007C53.9613 82.1628 54.1417 82.1954 54.325 82.1954C54.6799 82.1954 54.9815 82.1303 55.2328 81.9972C55.4842 81.8642 55.6793 81.6424 55.8183 81.3319C55.8686 81.2136 55.9248 81.1338 55.978 81.0954C56.0342 81.054 56.1022 81.0333 56.182 81.0333H56.5132C56.5931 81.0333 56.667 81.0628 56.7291 81.122C56.7912 81.1811 56.8207 81.2521 56.8119 81.3319C56.806 81.5093 56.7468 81.7015 56.6404 81.9115C56.5339 82.1214 56.3742 82.3166 56.1643 82.497C55.9543 82.6774 55.6941 82.8311 55.3896 82.9553C55.082 83.0795 54.7272 83.1446 54.3221 83.1446C53.917 83.1446 53.5562 83.0766 53.2428 82.9465C52.9293 82.8134 52.6632 82.633 52.4473 82.4053C52.2285 82.1776 52.0599 81.9085 51.9387 81.598C51.8175 81.2876 51.7495 80.9564 51.7347 80.6015C51.7258 80.4832 51.7228 80.3384 51.7169 80.1639C51.714 79.9894 51.7199 79.8416 51.7347 79.7144C51.7642 79.3596 51.8382 79.0284 51.9624 78.7179C52.0836 78.4074 52.2521 78.1383 52.4651 77.9106C52.678 77.683 52.9411 77.4996 53.2516 77.3695C53.5621 77.2364 53.9199 77.1714 54.325 77.1714C54.7301 77.1714 55.0879 77.2335 55.3925 77.3606C55.7 77.4878 55.9573 77.6386 56.1672 77.819C56.3772 77.9994 56.5369 78.1945 56.6433 78.4045C56.7498 78.6144 56.8089 78.8096 56.8148 78.984C56.8237 79.0668 56.7941 79.1348 56.732 79.194C56.6699 79.2531 56.596 79.2827 56.5162 79.2827H56.185C56.1022 79.2827 56.0342 79.262 55.981 79.2206C55.9248 79.1792 55.8715 79.1023 55.8213 78.984C55.6823 78.6735 55.4842 78.4518 55.2358 78.3187C54.9844 78.1856 54.6828 78.1206 54.328 78.1206C54.1417 78.1206 53.9613 78.1531 53.7809 78.2152C53.6006 78.2773 53.4379 78.3749 53.293 78.508C53.1481 78.641 53.0269 78.8096 52.9264 79.0166C52.8258 79.2236 52.7667 79.4749 52.743 79.7706C52.7223 80.0426 52.7223 80.2999 52.743 80.5454Z" fill="#898DA0"></path><path d="M60.5022 77.1685C60.9014 77.1685 61.2562 77.2306 61.5638 77.3518C61.8742 77.473 62.1404 77.6416 62.3592 77.8545C62.581 78.0674 62.7554 78.3276 62.8855 78.6351C63.0157 78.9427 63.0925 79.2768 63.1221 79.6376C63.128 79.7056 63.1339 79.7825 63.1339 79.8741V80.161V80.4478C63.1339 80.5395 63.131 80.6163 63.1221 80.6755C63.0837 81.0451 63.0038 81.3793 62.8796 81.6838C62.7554 81.9854 62.581 82.2457 62.3592 82.4586C62.1374 82.6715 61.8713 82.84 61.5638 82.9613C61.2533 83.0825 60.8984 83.1446 60.5022 83.1446C60.103 83.1446 59.7481 83.0825 59.4406 82.9613C59.1301 82.84 58.864 82.6715 58.6422 82.4586C58.4204 82.2457 58.246 81.9854 58.1159 81.6838C57.9858 81.3822 57.9059 81.0451 57.8793 80.6755C57.8704 80.6163 57.8675 80.5395 57.8616 80.4478C57.8586 80.3561 57.8557 80.2585 57.8557 80.161C57.8557 80.0604 57.8586 79.9658 57.8616 79.8741C57.8645 79.7825 57.8704 79.7026 57.8793 79.6376C57.9089 79.2768 57.9887 78.9427 58.1159 78.6351C58.246 78.3276 58.4204 78.0674 58.6422 77.8545C58.864 77.6416 59.1301 77.473 59.4406 77.3518C59.7511 77.2306 60.1059 77.1685 60.5022 77.1685ZM62.1197 80.6223C62.1345 80.4981 62.1404 80.3443 62.1404 80.1639C62.1404 79.9835 62.1345 79.8268 62.1197 79.6938C62.099 79.472 62.0487 79.265 61.9748 79.0728C61.9009 78.8806 61.7974 78.715 61.6643 78.576C61.5312 78.437 61.3686 78.3246 61.1764 78.2448C60.9842 78.165 60.7594 78.1236 60.5022 78.1236C60.2449 78.1236 60.0202 78.165 59.828 78.2448C59.6358 78.3276 59.4731 78.437 59.3401 78.576C59.207 78.7179 59.1035 78.8835 59.0296 79.0728C58.9557 79.265 58.9084 79.472 58.8847 79.6938C58.8699 79.8268 58.864 79.9835 58.864 80.1639C58.864 80.3443 58.8699 80.4981 58.8847 80.6223C58.9084 80.844 58.9557 81.051 59.0296 81.2432C59.1035 81.4354 59.207 81.601 59.3401 81.74C59.4731 81.8819 59.6358 81.9914 59.828 82.0712C60.0202 82.154 60.2449 82.1924 60.5022 82.1924C60.7594 82.1924 60.9842 82.151 61.1764 82.0712C61.3686 81.9914 61.5312 81.879 61.6643 81.74C61.7974 81.601 61.9009 81.4325 61.9748 81.2432C62.0487 81.051 62.096 80.844 62.1197 80.6223Z" fill="#898DA0"></path><path d="M69.6453 82.7365C69.6453 82.8193 69.6157 82.8873 69.5566 82.9465C69.4975 83.0056 69.4265 83.0352 69.3467 83.0352H68.9356C68.8558 83.0352 68.7848 83.0056 68.7257 82.9465C68.6665 82.8873 68.637 82.8163 68.637 82.7365V79.815C68.637 79.2472 68.5009 78.8214 68.2259 78.5434C67.9539 78.2625 67.5724 78.1235 67.0875 78.1235C66.6232 78.1235 66.2477 78.2625 65.9638 78.5434C65.6799 78.8244 65.538 79.2472 65.538 79.815V82.7365C65.538 82.8193 65.5084 82.8873 65.4493 82.9465C65.3902 83.0056 65.3192 83.0352 65.2394 83.0352H64.8283C64.7455 83.0352 64.6775 83.0056 64.6184 82.9465C64.5592 82.8873 64.5297 82.8163 64.5297 82.7365V77.5794C64.5297 77.4996 64.5592 77.4286 64.6184 77.3695C64.6775 77.3104 64.7455 77.2808 64.8283 77.2808H65.2394C65.3192 77.2808 65.3902 77.3104 65.4493 77.3695C65.5084 77.4286 65.538 77.4996 65.538 77.5794V77.9225C65.677 77.7391 65.8869 77.5676 66.1649 77.4079C66.4399 77.2483 66.8066 77.1714 67.256 77.1714C67.602 77.1714 67.9243 77.2276 68.22 77.3429C68.5157 77.4582 68.7671 77.6208 68.977 77.8308C69.187 78.0407 69.3526 78.301 69.4708 78.6115C69.5891 78.9219 69.6483 79.2679 69.6483 79.6523V82.7365H69.6453Z" fill="#898DA0"></path><path d="M71.9932 80.5454C72.0228 80.8411 72.0878 81.0924 72.1854 81.2994C72.2859 81.5064 72.4072 81.6749 72.5521 81.808C72.697 81.9411 72.8566 82.0386 73.0341 82.1007C73.2115 82.1628 73.3919 82.1954 73.5752 82.1954C73.93 82.1954 74.2317 82.1303 74.483 81.9972C74.7344 81.8642 74.9295 81.6424 75.0685 81.3319C75.1188 81.2136 75.175 81.1338 75.2282 81.0954C75.2844 81.054 75.3524 81.0333 75.4322 81.0333H75.7634C75.8432 81.0333 75.9172 81.0628 75.9793 81.122C76.0414 81.1811 76.0709 81.2521 76.0621 81.3319C76.0561 81.5093 75.997 81.7015 75.8905 81.9115C75.7841 82.1214 75.6244 82.3166 75.4145 82.497C75.2045 82.6774 74.9443 82.8311 74.6397 82.9553C74.3322 83.0795 73.9774 83.1446 73.5722 83.1446C73.1671 83.1446 72.8064 83.0766 72.4929 82.9465C72.1795 82.8134 71.9134 82.633 71.6975 82.4053C71.4787 82.1776 71.3101 81.9085 71.1889 81.598C71.0676 81.2876 70.9996 80.9564 70.9849 80.6015C70.976 80.4832 70.973 80.3384 70.9671 80.1639C70.9642 79.9894 70.9701 79.8416 70.9849 79.7144C71.0144 79.3596 71.0883 79.0284 71.2125 78.7179C71.3338 78.4074 71.5023 78.1383 71.7152 77.9106C71.9281 77.683 72.1913 77.4996 72.5018 77.3695C72.8123 77.2364 73.1701 77.1714 73.5752 77.1714C73.9803 77.1714 74.3381 77.2335 74.6427 77.3606C74.9502 77.4878 75.2075 77.6386 75.4174 77.819C75.6274 77.9994 75.7871 78.1945 75.8935 78.4045C76 78.6144 76.0591 78.8096 76.065 78.984C76.0739 79.0668 76.0443 79.1348 75.9822 79.194C75.9201 79.2531 75.8462 79.2827 75.7664 79.2827H75.4352C75.3524 79.2827 75.2844 79.262 75.2311 79.2206C75.175 79.1792 75.1217 79.1023 75.0715 78.984C74.9325 78.6735 74.7344 78.4518 74.486 78.3187C74.2346 78.1856 73.933 78.1206 73.5782 78.1206C73.3919 78.1206 73.2115 78.1531 73.0311 78.2152C72.8507 78.2773 72.6881 78.3749 72.5432 78.508C72.3983 78.641 72.2771 78.8096 72.1765 79.0166C72.076 79.2236 72.0169 79.4749 71.9932 79.7706C71.9725 80.0426 71.9725 80.2999 71.9932 80.5454Z" fill="#898DA0"></path><path d="M78.5134 76.1067C78.5134 76.1866 78.4839 76.2575 78.4247 76.3167C78.3656 76.3758 78.2946 76.4054 78.2148 76.4054H77.5849C77.5051 76.4054 77.4341 76.3758 77.375 76.3167C77.3158 76.2575 77.2863 76.1866 77.2863 76.1067V75.4769C77.2863 75.397 77.3158 75.3261 77.375 75.2669C77.4341 75.2078 77.5051 75.1782 77.5849 75.1782H78.2148C78.2946 75.1782 78.3656 75.2078 78.4247 75.2669C78.4839 75.3261 78.5134 75.397 78.5134 75.4769V76.1067ZM78.4011 82.7364C78.4011 82.8192 78.3715 82.8872 78.3123 82.9463C78.2532 83.0055 78.1822 83.035 78.1024 83.035H77.6914C77.6115 83.035 77.5406 83.0055 77.4814 82.9463C77.4223 82.8872 77.3927 82.8162 77.3927 82.7364V77.5793C77.3927 77.4995 77.4223 77.4285 77.4814 77.3694C77.5406 77.3102 77.6086 77.2807 77.6914 77.2807H78.1024C78.1822 77.2807 78.2532 77.3102 78.3123 77.3694C78.3715 77.4285 78.4011 77.4995 78.4011 77.5793V82.7364Z" fill="#898DA0"></path><path d="M81.0712 82.7364C81.0712 82.8192 81.0416 82.8872 80.9825 82.9464C80.9234 83.0055 80.8524 83.0351 80.7725 83.0351H80.3615C80.2817 83.0351 80.2107 83.0055 80.1516 82.9464C80.0924 82.8872 80.0629 82.8162 80.0629 82.7364V75.474C80.0629 75.3941 80.0924 75.3231 80.1516 75.264C80.2107 75.2049 80.2787 75.1753 80.3615 75.1753H80.7725C80.8524 75.1753 80.9234 75.2049 80.9825 75.264C81.0416 75.3231 81.0712 75.3941 81.0712 75.474V82.7364Z" fill="#898DA0"></path><path d="M83.8479 76.1067C83.8479 76.1866 83.8183 76.2575 83.7592 76.3167C83.7 76.3758 83.6291 76.4054 83.5492 76.4054H82.9194C82.8396 76.4054 82.7686 76.3758 82.7094 76.3167C82.6503 76.2575 82.6207 76.1866 82.6207 76.1067V75.4769C82.6207 75.397 82.6503 75.3261 82.7094 75.2669C82.7686 75.2078 82.8396 75.1782 82.9194 75.1782H83.5492C83.6291 75.1782 83.7 75.2078 83.7592 75.2669C83.8183 75.3261 83.8479 75.397 83.8479 75.4769V76.1067ZM83.7385 82.7364C83.7385 82.8192 83.7089 82.8872 83.6498 82.9463C83.5906 83.0055 83.5197 83.035 83.4398 83.035H83.0288C82.949 83.035 82.878 83.0055 82.8188 82.9463C82.7597 82.8872 82.7301 82.8162 82.7301 82.7364V77.5793C82.7301 77.4995 82.7597 77.4285 82.8188 77.3694C82.878 77.3102 82.946 77.2807 83.0288 77.2807H83.4398C83.5197 77.2807 83.5906 77.3102 83.6498 77.3694C83.7089 77.4285 83.7385 77.4995 83.7385 77.5793V82.7364Z" fill="#898DA0"></path><path d="M84.9893 81.5833C84.9893 81.2876 85.0485 81.0303 85.1667 80.8086C85.285 80.5868 85.4477 80.4005 85.6546 80.2438C85.8616 80.09 86.1041 79.9628 86.3791 79.8682C86.6571 79.7706 86.9498 79.6967 87.2603 79.6464L88.8216 79.3921V79.2472C88.8216 78.8717 88.6974 78.5878 88.452 78.4015C88.2036 78.2123 87.8961 78.1206 87.5264 78.1206C87.2012 78.1206 86.9557 78.1798 86.7901 78.298C86.6246 78.4163 86.4826 78.5553 86.3643 78.7179C86.32 78.7771 86.2727 78.8185 86.2194 78.8392C86.1662 78.8599 86.0982 78.8717 86.0095 78.8717H85.6783C85.5985 78.8717 85.5245 78.8421 85.4624 78.783C85.4003 78.7238 85.3708 78.6529 85.3796 78.573C85.3944 78.4104 85.4595 78.2448 85.5719 78.0763C85.6872 77.9077 85.8409 77.7539 86.0361 77.6209C86.2313 77.4878 86.456 77.3784 86.7103 77.2956C86.9646 77.2099 87.2366 77.1685 87.5235 77.1685C87.8547 77.1685 88.1622 77.2158 88.449 77.3133C88.7329 77.408 88.9754 77.5499 89.1794 77.7332C89.3834 77.9166 89.5402 78.1472 89.6555 78.4193C89.7708 78.6913 89.827 79.0048 89.827 79.3596V82.7365C89.827 82.8164 89.7974 82.8873 89.7383 82.9465C89.6792 83.0056 89.6082 83.0352 89.5283 83.0352H89.1173C89.0375 83.0352 88.9665 83.0056 88.9074 82.9465C88.8482 82.8873 88.8187 82.8164 88.8187 82.7365V82.2812C88.7536 82.4201 88.6501 82.5443 88.5082 82.6508C88.3692 82.7572 88.2066 82.8489 88.0262 82.9228C87.8458 82.9967 87.6565 83.05 87.4614 83.0884C87.2662 83.1239 87.0829 83.1446 86.9143 83.1446C86.6275 83.1446 86.3614 83.1032 86.1219 83.0234C85.8823 82.9406 85.6783 82.8341 85.5127 82.6951C85.3471 82.5591 85.217 82.3935 85.1253 82.2013C85.0337 82.0121 84.9893 81.8051 84.9893 81.5833ZM87.0237 82.1924C87.2899 82.1924 87.5324 82.151 87.7541 82.0712C87.9759 81.9884 88.1652 81.879 88.3248 81.7341C88.4845 81.5892 88.6058 81.4177 88.6915 81.2196C88.7773 81.0215 88.8187 80.7997 88.8187 80.5572V80.2792L87.5117 80.4892C87.0474 80.5631 86.6778 80.6814 86.4057 80.844C86.1337 81.0067 85.9977 81.2166 85.9977 81.4739C85.9977 81.5567 86.0154 81.6365 86.0538 81.7164C86.0893 81.7962 86.1485 81.876 86.2313 81.95C86.3111 82.0239 86.4176 82.083 86.5477 82.1274C86.6719 82.1717 86.8345 82.1924 87.0237 82.1924Z" fill="#898DA0"></path><path d="M92.1837 80.5454C92.2133 80.8411 92.2783 81.0924 92.3759 81.2994C92.4764 81.5064 92.5977 81.6749 92.7426 81.808C92.8875 81.9411 93.0471 82.0386 93.2246 82.1007C93.402 82.1628 93.5824 82.1954 93.7657 82.1954C94.1205 82.1954 94.4222 82.1303 94.6735 81.9972C94.9249 81.8642 95.12 81.6424 95.259 81.3319C95.3093 81.2136 95.3654 81.1338 95.4187 81.0954C95.4749 81.054 95.5429 81.0333 95.6227 81.0333H95.9539C96.0337 81.0333 96.1077 81.0628 96.1698 81.122C96.2319 81.1811 96.2614 81.2521 96.2526 81.3319C96.2466 81.5093 96.1875 81.7015 96.081 81.9115C95.9746 82.1214 95.8149 82.3166 95.605 82.497C95.395 82.6774 95.1348 82.8311 94.8302 82.9553C94.5227 83.0795 94.1678 83.1446 93.7627 83.1446C93.3576 83.1446 92.9969 83.0766 92.6834 82.9465C92.37 82.8134 92.1038 82.633 91.888 82.4053C91.6692 82.1776 91.5006 81.9085 91.3794 81.598C91.2581 81.2876 91.1901 80.9564 91.1753 80.6015C91.1665 80.4832 91.1635 80.3384 91.1576 80.1639C91.1546 79.9894 91.1606 79.8416 91.1753 79.7144C91.2049 79.3596 91.2788 79.0284 91.403 78.7179C91.5243 78.4074 91.6928 78.1383 91.9057 77.9106C92.1186 77.683 92.3818 77.4996 92.6923 77.3695C93.0028 77.2364 93.3606 77.1714 93.7657 77.1714C94.1708 77.1714 94.5286 77.2335 94.8332 77.3606C95.1407 77.4878 95.398 77.6386 95.6079 77.819C95.8179 77.9994 95.9775 78.1945 96.084 78.4045C96.1905 78.6144 96.2496 78.8096 96.2555 78.984C96.2644 79.0668 96.2348 79.1348 96.1727 79.194C96.1106 79.2531 96.0367 79.2827 95.9569 79.2827H95.6257C95.5429 79.2827 95.4749 79.262 95.4216 79.2206C95.3654 79.1792 95.3122 79.1023 95.2619 78.984C95.123 78.6735 94.9248 78.4518 94.6765 78.3187C94.4251 78.1856 94.1235 78.1206 93.7686 78.1206C93.5824 78.1206 93.402 78.1531 93.2216 78.2152C93.0412 78.2773 92.8786 78.3749 92.7337 78.508C92.5888 78.641 92.4676 78.8096 92.367 79.0166C92.2665 79.2236 92.2073 79.4749 92.1837 79.7706C92.16 80.0426 92.16 80.2999 92.1837 80.5454Z" fill="#898DA0"></path><path d="M98.704 76.1067C98.704 76.1866 98.6744 76.2575 98.6153 76.3167C98.5561 76.3758 98.4852 76.4054 98.4053 76.4054H97.7755C97.6956 76.4054 97.6247 76.3758 97.5655 76.3167C97.5064 76.2575 97.4768 76.1866 97.4768 76.1067V75.4769C97.4768 75.397 97.5064 75.3261 97.5655 75.2669C97.6247 75.2078 97.6956 75.1782 97.7755 75.1782H98.4053C98.4852 75.1782 98.5561 75.2078 98.6153 75.2669C98.6744 75.3261 98.704 75.397 98.704 75.4769V76.1067ZM98.5916 82.7364C98.5916 82.8192 98.562 82.8872 98.5029 82.9463C98.4438 83.0055 98.3728 83.035 98.2929 83.035H97.8819C97.8021 83.035 97.7311 83.0055 97.672 82.9463C97.6128 82.8872 97.5833 82.8162 97.5833 82.7364V77.5793C97.5833 77.4995 97.6128 77.4285 97.672 77.3694C97.7311 77.3102 97.7991 77.2807 97.8819 77.2807H98.2929C98.3728 77.2807 98.4438 77.3102 98.5029 77.3694C98.562 77.4285 98.5916 77.4995 98.5916 77.5793V82.7364Z" fill="#898DA0"></path><path d="M102.61 77.1684C103.009 77.1684 103.364 77.2305 103.672 77.3518C103.982 77.473 104.248 77.6416 104.47 77.8545C104.692 78.0703 104.866 78.3305 104.997 78.6351C105.127 78.9426 105.204 79.2768 105.236 79.6375C105.242 79.7026 105.248 79.7824 105.248 79.8741V80.1609V80.4478C105.248 80.5394 105.245 80.6163 105.236 80.6755C105.198 81.0451 105.118 81.3792 104.994 81.6838C104.869 81.9884 104.695 82.2456 104.473 82.4585C104.251 82.6714 103.985 82.84 103.675 82.9612C103.364 83.0825 103.009 83.1446 102.613 83.1446C102.217 83.1446 101.859 83.0825 101.552 82.9612C101.241 82.84 100.975 82.6714 100.753 82.4585C100.531 82.2456 100.357 81.9854 100.227 81.6838C100.097 81.3822 100.017 81.0451 99.9873 80.6755C99.9785 80.6163 99.9755 80.5394 99.9696 80.4478C99.9666 80.3561 99.9637 80.2585 99.9637 80.1609C99.9637 80.0604 99.9666 79.9658 99.9696 79.8741C99.9726 79.7824 99.9785 79.7026 99.9873 79.6375C100.017 79.2768 100.097 78.9426 100.227 78.6351C100.357 78.3276 100.531 78.0674 100.753 77.8545C100.975 77.6416 101.241 77.473 101.552 77.3518C101.859 77.2305 102.211 77.1684 102.61 77.1684ZM104.228 80.6222C104.242 80.4951 104.251 80.3443 104.251 80.1639C104.251 79.9835 104.245 79.8268 104.228 79.6937C104.207 79.4719 104.157 79.265 104.083 79.0727C104.009 78.8805 103.905 78.715 103.772 78.576C103.639 78.437 103.477 78.3246 103.284 78.2448C103.092 78.1649 102.867 78.1235 102.61 78.1235C102.353 78.1235 102.125 78.1649 101.936 78.2448C101.744 78.3246 101.581 78.437 101.448 78.576C101.315 78.715 101.212 78.8835 101.138 79.0727C101.064 79.265 101.016 79.4719 100.993 79.6937C100.978 79.8268 100.972 79.9835 100.972 80.1639C100.972 80.3443 100.978 80.498 100.993 80.6222C101.016 80.844 101.064 81.051 101.138 81.2432C101.212 81.4354 101.315 81.601 101.448 81.74C101.581 81.879 101.744 81.9913 101.936 82.0712C102.128 82.151 102.353 82.1924 102.61 82.1924C102.867 82.1924 103.092 82.151 103.284 82.0712C103.477 81.9913 103.639 81.879 103.772 81.74C103.905 81.601 104.009 81.4325 104.083 81.2432C104.157 81.051 104.204 80.844 104.228 80.6222ZM102.941 75.1103C103.021 75.0157 103.089 74.9566 103.145 74.9329C103.202 74.9122 103.27 74.9004 103.349 74.9004H104.169C104.308 74.9004 104.379 74.9743 104.379 75.1222C104.379 75.1754 104.361 75.2197 104.322 75.2552L103.092 76.2636C103.033 76.3138 102.971 76.3582 102.903 76.3966C102.838 76.4351 102.743 76.4528 102.625 76.4528H102.214C102.096 76.4528 102.037 76.3937 102.037 76.2754C102.037 76.2163 102.054 76.1689 102.093 76.1305L102.941 75.1103Z" fill="#898DA0"></path><path d="M111.753 82.7365C111.753 82.8193 111.724 82.8873 111.665 82.9465C111.605 83.0056 111.534 83.0352 111.455 83.0352H111.044C110.964 83.0352 110.893 83.0056 110.834 82.9465C110.775 82.8873 110.745 82.8163 110.745 82.7365V79.815C110.745 79.2472 110.609 78.8214 110.334 78.5434C110.062 78.2625 109.68 78.1235 109.195 78.1235C108.731 78.1235 108.356 78.2625 108.072 78.5434C107.788 78.8244 107.646 79.2472 107.646 79.815V82.7365C107.646 82.8193 107.616 82.8873 107.557 82.9465C107.498 83.0056 107.427 83.0352 107.347 83.0352H106.936C106.853 83.0352 106.785 83.0056 106.726 82.9465C106.667 82.8873 106.638 82.8163 106.638 82.7365V77.5794C106.638 77.4996 106.667 77.4286 106.726 77.3695C106.785 77.3104 106.853 77.2808 106.936 77.2808H107.347C107.427 77.2808 107.498 77.3104 107.557 77.3695C107.616 77.4286 107.646 77.4996 107.646 77.5794V77.9225C107.785 77.7391 107.995 77.5676 108.273 77.4079C108.548 77.2483 108.915 77.1714 109.364 77.1714C109.71 77.1714 110.032 77.2276 110.328 77.3429C110.624 77.4582 110.875 77.6208 111.085 77.8308C111.295 78.0407 111.461 78.301 111.579 78.6115C111.697 78.9219 111.756 79.2679 111.756 79.6523V82.7365H111.753Z" fill="#898DA0"></path><path d="M13.731 63.5159C13.8375 63.5159 13.9291 63.5543 14.006 63.6312C14.0829 63.7081 14.1213 63.7998 14.1213 63.9062V64.9382C14.1213 65.0447 14.0829 65.1363 14.006 65.2132C13.9291 65.2901 13.8375 65.3286 13.731 65.3286H9.10031V68.1436H13.4412C13.5477 68.1436 13.6393 68.1821 13.7162 68.259C13.7931 68.3358 13.8315 68.4275 13.8315 68.534V69.566C13.8315 69.6724 13.7931 69.7641 13.7162 69.841C13.6393 69.9179 13.5477 69.9563 13.4412 69.9563H9.10031V73.28C9.10031 73.3864 9.06187 73.4781 8.98499 73.555C8.9081 73.6319 8.81644 73.6703 8.70998 73.6703H7.53309C7.42664 73.6703 7.33497 73.6319 7.25808 73.555C7.1812 73.4781 7.14276 73.3864 7.14276 73.28V63.9033C7.14276 63.7968 7.1812 63.7051 7.25808 63.6283C7.33497 63.5514 7.42664 63.5129 7.53309 63.5129H13.731V63.5159Z" fill="#6D5A9C"></path><path d="M15.4726 66.5202C15.4726 66.4138 15.5111 66.3221 15.5879 66.2452C15.6648 66.1683 15.7565 66.1299 15.863 66.1299H16.9659C17.0724 66.1299 17.164 66.1683 17.2409 66.2452C17.3178 66.3221 17.3562 66.4138 17.3562 66.5202V70.2076C17.3562 70.7872 17.4804 71.2544 17.7259 71.6004C17.9713 71.9493 18.3764 72.1238 18.9383 72.1238C19.4528 72.1238 19.8431 71.9493 20.1151 71.6004C20.3872 71.2514 20.5232 70.7872 20.5232 70.2076V66.5202C20.5232 66.4138 20.5617 66.3221 20.6385 66.2452C20.7154 66.1683 20.8071 66.1299 20.9135 66.1299H22.0165C22.123 66.1299 22.2146 66.1683 22.2915 66.2452C22.3684 66.3221 22.4068 66.4138 22.4068 66.5202V73.2859C22.4068 73.3923 22.3684 73.484 22.2915 73.5609C22.2146 73.6378 22.123 73.6762 22.0165 73.6762H20.9135C20.8071 73.6762 20.7154 73.6378 20.6385 73.5609C20.5617 73.484 20.5232 73.3923 20.5232 73.2859V72.9517C20.3014 73.1735 20.0235 73.3746 19.6953 73.555C19.367 73.7324 18.9708 73.8241 18.5036 73.8241C17.9122 73.8241 17.4243 73.7324 17.0369 73.5491C16.6495 73.3657 16.339 73.1173 16.1084 72.8098C15.8777 72.4993 15.7121 72.1386 15.6146 71.7275C15.517 71.3165 15.4697 70.8848 15.4697 70.4294V66.5202H15.4726Z" fill="#6D5A9C"></path><path d="M31.4997 73.2858C31.4997 73.3922 31.4613 73.4839 31.3844 73.5608C31.3075 73.6377 31.2158 73.6761 31.1094 73.6761H30.0064C29.9 73.6761 29.8083 73.6377 29.7314 73.5608C29.6545 73.4839 29.6161 73.3922 29.6161 73.2858V69.5984C29.6161 69.0188 29.4801 68.5516 29.208 68.2056C28.936 67.8567 28.522 67.6822 27.9601 67.6822C27.4456 67.6822 27.0435 67.8567 26.7478 68.2056C26.4521 68.5545 26.3042 69.0188 26.3042 69.5984V73.2858C26.3042 73.3922 26.2658 73.4839 26.1889 73.5608C26.112 73.6377 26.0203 73.6761 25.9139 73.6761H24.8109C24.7045 73.6761 24.6128 73.6377 24.5359 73.5608C24.459 73.4839 24.4206 73.3922 24.4206 73.2858V66.5201C24.4206 66.4137 24.459 66.322 24.5359 66.2451C24.6128 66.1682 24.7045 66.1298 24.8109 66.1298H25.9139C26.0203 66.1298 26.112 66.1682 26.1889 66.2451C26.2658 66.322 26.3042 66.4137 26.3042 66.5201V66.8543C26.5556 66.6029 26.8513 66.3959 27.1913 66.2303C27.5284 66.0647 27.9306 65.9819 28.3948 65.9819C28.9862 65.9819 29.4801 66.0736 29.8763 66.2569C30.2725 66.4403 30.5919 66.6887 30.8344 66.9962C31.0769 67.3067 31.2484 67.6674 31.3489 68.0785C31.4494 68.4895 31.5027 68.9242 31.5027 69.3796V73.2858H31.4997Z" fill="#6D5A9C"></path><path d="M36.3315 65.9819C36.6301 65.9819 36.8992 66.0115 37.1387 66.0677C37.3753 66.1268 37.5852 66.1978 37.7627 66.2865C37.943 66.3722 38.0938 66.4669 38.221 66.5704C38.3481 66.6709 38.4487 66.7655 38.5256 66.8542V63.7612C38.5256 63.6547 38.564 63.5631 38.6409 63.4862C38.7178 63.4093 38.8094 63.3708 38.9159 63.3708H40.0189C40.1253 63.3708 40.217 63.4093 40.2939 63.4862C40.3708 63.5631 40.4092 63.6547 40.4092 63.7612V73.2857C40.4092 73.3922 40.3708 73.4839 40.2939 73.5608C40.217 73.6376 40.1253 73.6761 40.0189 73.6761H38.9159C38.8094 73.6761 38.7178 73.6376 38.6409 73.5608C38.564 73.4839 38.5256 73.3922 38.5256 73.2857V72.9516C38.4487 73.0374 38.3452 73.132 38.221 73.2355C38.0938 73.336 37.943 73.4306 37.7627 73.5194C37.5823 73.6051 37.3753 73.679 37.1387 73.7382C36.9022 73.7973 36.6331 73.8239 36.3315 73.8239C35.8465 73.8239 35.4089 73.7293 35.0185 73.54C34.6253 73.3508 34.2941 73.0995 34.0161 72.786C33.7411 72.4726 33.5223 72.1089 33.3626 71.6978C33.2029 71.2868 33.1142 70.858 33.0935 70.4145C33.0846 70.2696 33.0787 70.101 33.0787 69.9059C33.0787 69.7137 33.0846 69.5422 33.0935 69.3973C33.1142 68.9508 33.2029 68.5249 33.3626 68.1139C33.5223 67.7029 33.7411 67.3392 34.0161 67.0257C34.2911 66.7123 34.6253 66.4609 35.0185 66.2717C35.4118 66.0765 35.8495 65.9819 36.3315 65.9819ZM34.9831 69.4978C34.9535 69.7698 34.9535 70.0389 34.9831 70.311C35.0422 70.9408 35.2344 71.3933 35.5626 71.6683C35.8909 71.9433 36.293 72.0822 36.7661 72.0822C37.2393 72.0822 37.6385 71.9433 37.9637 71.6623C38.289 71.3814 38.4753 70.9793 38.5226 70.4588C38.5433 70.3139 38.5522 70.1306 38.5522 69.9059C38.5522 69.6841 38.5433 69.5008 38.5226 69.3529C38.4753 68.8502 38.289 68.454 37.9637 68.1612C37.6385 67.8714 37.2393 67.7265 36.7661 67.7265C36.293 67.7265 35.8909 67.8655 35.5626 68.1405C35.2344 68.4155 35.0422 68.868 34.9831 69.4978Z" fill="#6D5A9C"></path><path d="M42.4141 67.9868C42.4525 67.7827 42.5412 67.5669 42.6832 67.3333C42.8221 67.1026 43.0232 66.8838 43.2775 66.6798C43.5348 66.4757 43.8482 66.3101 44.2208 66.18C44.5934 66.0499 45.0281 65.9849 45.5189 65.9849C46.0128 65.9849 46.4563 66.0499 46.8555 66.18C47.2518 66.3101 47.5948 66.5023 47.8786 66.7537C48.1655 67.005 48.3843 67.3214 48.5381 67.7059C48.6918 68.0873 48.7717 68.5249 48.7717 69.0188V73.2858C48.7717 73.3922 48.7332 73.4839 48.6563 73.5608C48.5795 73.6376 48.4878 73.6761 48.3813 73.6761H47.2784C47.1719 73.6761 47.0803 73.6376 47.0034 73.5608C46.9265 73.4839 46.888 73.3922 46.888 73.2858V72.8067C46.684 73.0876 46.3913 73.3272 46.0098 73.5253C45.6284 73.7234 45.1404 73.8239 44.552 73.8239C44.1351 73.8239 43.7625 73.7677 43.4342 73.6554C43.106 73.543 42.8281 73.3863 42.6063 73.1823C42.3845 72.9782 42.213 72.7387 42.0918 72.4637C41.9705 72.1887 41.9114 71.8841 41.9114 71.5559C41.9114 70.8876 42.1479 70.3642 42.624 69.9887C43.0971 69.6102 43.7329 69.3559 44.5254 69.2198L46.891 68.8118C46.891 68.4155 46.7609 68.1346 46.5007 67.969C46.2405 67.8064 45.9152 67.7236 45.5278 67.7236C45.2853 67.7236 45.0961 67.7591 44.9601 67.8241C44.824 67.8921 44.6939 67.9838 44.5668 68.0991C44.481 68.176 44.4012 68.2292 44.3273 68.2588C44.2533 68.2884 44.1735 68.3032 44.0877 68.3032H42.7364C42.6388 68.3032 42.556 68.2736 42.491 68.2174C42.42 68.1612 42.3963 68.0844 42.4141 67.9868ZM44.8388 72.0793C45.1671 72.0793 45.4598 72.0349 45.7171 71.9403C45.9743 71.8486 46.1872 71.7244 46.3617 71.5707C46.5362 71.4169 46.6663 71.2425 46.752 71.0473C46.8378 70.8521 46.8821 70.654 46.8821 70.4529V70.308L44.9068 70.657C44.5106 70.725 44.2238 70.8255 44.0493 70.9556C43.8748 71.0857 43.7891 71.2632 43.7891 71.4849C43.7891 71.689 43.8926 71.8398 44.1025 71.9344C44.3154 72.032 44.5579 72.0793 44.8388 72.0793Z" fill="#6D5A9C"></path><path d="M52.2284 69.3941C52.2077 69.539 52.1989 69.7076 52.1989 69.9028C52.1989 70.0979 52.2077 70.2665 52.2284 70.4114C52.258 70.71 52.326 70.9673 52.4325 71.1802C52.5389 71.3931 52.672 71.5646 52.8317 71.6947C52.9913 71.8248 53.1688 71.9224 53.361 71.9845C53.5532 72.0466 53.7543 72.0791 53.9553 72.0791C54.1978 72.0791 54.4018 72.0614 54.5645 72.02C54.7301 71.9815 54.8691 71.9254 54.9844 71.8544C55.0997 71.7805 55.2002 71.7006 55.283 71.606C55.3658 71.5143 55.4457 71.4108 55.5226 71.2955C55.5817 71.2098 55.6468 71.121 55.7266 71.0353C55.8035 70.9495 55.8951 70.9052 56.0016 70.9052H57.1046C57.211 70.9052 57.3056 70.9436 57.3884 71.0205C57.4712 71.0974 57.5067 71.1891 57.4978 71.2955C57.489 71.4995 57.4151 71.745 57.279 72.0348C57.143 72.3246 56.9331 72.6025 56.6462 72.8686C56.3594 73.1348 55.9957 73.3595 55.5492 73.5429C55.1027 73.7262 54.5704 73.8179 53.9524 73.8179C53.4201 73.8179 52.9411 73.7291 52.5153 73.5488C52.0895 73.3713 51.7198 73.1289 51.4034 72.8213C51.087 72.5168 50.8416 72.1649 50.6642 71.7627C50.4838 71.3606 50.3744 70.9377 50.3389 70.4912C50.3182 70.3167 50.3093 70.1245 50.3093 69.9116C50.3093 69.6987 50.3182 69.5006 50.3389 69.3173C50.3685 68.8708 50.4749 68.4449 50.6583 68.0398C50.8416 67.6318 51.09 67.2769 51.3975 66.9723C51.708 66.6678 52.0776 66.4253 52.5094 66.2449C52.9411 66.0675 53.4201 65.9758 53.9553 65.9758C54.5734 65.9758 55.1056 66.0675 55.5521 66.2508C55.9986 66.4342 56.3624 66.6589 56.6492 66.925C56.9331 67.1912 57.146 67.4691 57.282 67.7589C57.418 68.0487 57.489 68.2971 57.5008 68.4982C57.5097 68.6046 57.4742 68.6963 57.3914 68.7732C57.3086 68.8501 57.214 68.8885 57.1075 68.8885H56.0045C55.8981 68.8885 55.8064 68.8441 55.7295 68.7584C55.6527 68.6726 55.5847 68.5839 55.5255 68.4982C55.4486 68.3828 55.3688 68.2794 55.286 68.1847C55.2032 68.0931 55.1056 68.0103 54.9873 67.9393C54.872 67.8654 54.7301 67.8121 54.5674 67.7737C54.4018 67.7353 54.2008 67.7146 53.9583 67.7146C53.7543 67.7146 53.5561 67.7471 53.3639 67.8092C53.1717 67.8713 52.9943 67.9689 52.8346 68.099C52.6749 68.2291 52.5419 68.4006 52.4354 68.6135C52.326 68.8382 52.258 69.0955 52.2284 69.3941Z" fill="#6D5A9C"></path><path d="M60.65 63.3708C60.7565 63.3708 60.8481 63.4093 60.925 63.4862C61.0019 63.5631 61.0404 63.6547 61.0404 63.7612V64.8937C61.0404 65.0002 61.0019 65.0918 60.925 65.1687C60.8481 65.2456 60.7565 65.284 60.65 65.284H59.4022C59.2957 65.284 59.204 65.2456 59.1272 65.1687C59.0503 65.0918 59.0118 65.0002 59.0118 64.8937V63.7612C59.0118 63.6547 59.0503 63.5631 59.1272 63.4862C59.204 63.4093 59.2957 63.3708 59.4022 63.3708H60.65ZM60.9694 73.2857C60.9694 73.3922 60.9309 73.4839 60.8541 73.5608C60.7772 73.6376 60.6855 73.6761 60.5791 73.6761H59.4761C59.3696 73.6761 59.278 73.6376 59.2011 73.5608C59.1242 73.4839 59.0858 73.3922 59.0858 73.2857V66.5201C59.0858 66.4136 59.1242 66.322 59.2011 66.2451C59.278 66.1682 59.3696 66.1298 59.4761 66.1298H60.5791C60.6855 66.1298 60.7772 66.1682 60.8541 66.2451C60.9309 66.322 60.9694 66.4136 60.9694 66.5201V73.2857Z" fill="#6D5A9C"></path><path d="M66.295 65.982C66.8273 65.982 67.3093 66.0648 67.7381 66.2274C68.1698 66.393 68.5424 66.6207 68.8558 66.9105C69.1693 67.2003 69.4236 67.5403 69.6099 67.9277C69.7991 68.3151 69.9085 68.732 69.9381 69.1756C69.947 69.2613 69.9529 69.3737 69.9529 69.5097V69.9178V70.317C69.9529 70.4471 69.947 70.5565 69.9381 70.6452C69.8996 71.0917 69.7873 71.5057 69.6039 71.8931C69.4206 72.2804 69.1722 72.6175 68.8558 72.9014C68.5424 73.1883 68.1698 73.413 67.7381 73.5756C67.3063 73.7412 66.8273 73.824 66.295 73.824C65.7628 73.824 65.2808 73.7412 64.852 73.5756C64.4203 73.41 64.0477 73.1853 63.7342 72.9014C63.4208 72.6175 63.1695 72.2804 62.9861 71.8931C62.8028 71.5057 62.6904 71.0888 62.652 70.6452C62.6431 70.5595 62.6342 70.4501 62.6313 70.317C62.6254 70.1869 62.6254 70.0538 62.6254 69.9178C62.6254 69.7818 62.6283 69.6457 62.6313 69.5097C62.6372 69.3737 62.6431 69.2643 62.652 69.1756C62.6816 68.7291 62.791 68.3151 62.9802 67.9277C63.1695 67.5403 63.4208 67.2032 63.7342 66.9105C64.0477 66.6207 64.4203 66.393 64.852 66.2274C65.2808 66.0648 65.7628 65.982 66.295 65.982ZM68.0515 69.2495C68.0219 68.9508 67.951 68.6995 67.8416 68.5014C67.7292 68.3033 67.5932 68.1465 67.4276 68.0282C67.262 67.9129 67.0846 67.8331 66.8894 67.7887C66.6972 67.7444 66.4961 67.7237 66.295 67.7237C66.091 67.7237 65.8929 67.7444 65.7007 67.7887C65.5055 67.8331 65.3281 67.9129 65.1625 68.0282C64.9969 68.1436 64.8609 68.3033 64.7485 68.5014C64.6361 68.6995 64.5681 68.9479 64.5386 69.2495C64.5297 69.3264 64.5208 69.424 64.5179 69.5393C64.5119 69.6546 64.509 69.7758 64.509 69.903C64.509 70.0302 64.5119 70.1514 64.5179 70.2726C64.5208 70.3939 64.5297 70.4885 64.5386 70.5565C64.5681 70.8552 64.6361 71.1065 64.7485 71.3046C64.8609 71.5028 64.9969 71.6595 65.1625 71.7778C65.3281 71.8931 65.5055 71.9729 65.7007 72.0173C65.8929 72.0616 66.094 72.0823 66.295 72.0823C66.4991 72.0823 66.6972 72.0616 66.8894 72.0173C67.0816 71.9729 67.262 71.8931 67.4276 71.7778C67.5932 71.6624 67.7292 71.5057 67.8416 71.3046C67.9539 71.1065 68.0219 70.8581 68.0515 70.5565C68.0604 70.4885 68.0663 70.3939 68.0663 70.2726V69.903V69.5393C68.0663 69.424 68.0604 69.3264 68.0515 69.2495ZM66.8184 63.1373C66.9249 63.0102 67.0136 62.9333 67.0875 62.9037C67.1585 62.8742 67.2501 62.8594 67.3566 62.8594H68.7346C68.9179 62.8594 69.0096 62.957 69.0096 63.1492C69.0096 63.2172 68.9859 63.2763 68.9357 63.3236L67.1496 64.7903C67.0727 64.8583 66.9899 64.9175 66.9012 64.9648C66.8155 65.0121 66.6942 65.0387 66.5375 65.0387H65.7391C65.5853 65.0387 65.5055 64.9618 65.5055 64.8051C65.5055 64.746 65.5292 64.6839 65.5794 64.6158L66.8184 63.1373Z" fill="#6D5A9C"></path><path d="M78.6938 73.2858C78.6938 73.3922 78.6554 73.4839 78.5785 73.5608C78.5016 73.6377 78.4099 73.6761 78.3035 73.6761H77.2005C77.094 73.6761 77.0024 73.6377 76.9255 73.5608C76.8486 73.4839 76.8102 73.3922 76.8102 73.2858V69.5984C76.8102 69.0188 76.6742 68.5516 76.4021 68.2056C76.1301 67.8567 75.7161 67.6822 75.1542 67.6822C74.6397 67.6822 74.2376 67.8567 73.9419 68.2056C73.6462 68.5545 73.4983 69.0188 73.4983 69.5984V73.2858C73.4983 73.3922 73.4599 73.4839 73.383 73.5608C73.3061 73.6377 73.2144 73.6761 73.108 73.6761H72.005C71.8986 73.6761 71.8069 73.6377 71.73 73.5608C71.6531 73.4839 71.6147 73.3922 71.6147 73.2858V66.5201C71.6147 66.4137 71.6531 66.322 71.73 66.2451C71.8069 66.1682 71.8986 66.1298 72.005 66.1298H73.108C73.2144 66.1298 73.3061 66.1682 73.383 66.2451C73.4599 66.322 73.4983 66.4137 73.4983 66.5201V66.8543C73.7497 66.6029 74.0454 66.3959 74.3825 66.2303C74.7196 66.0647 75.1217 65.9819 75.586 65.9819C76.1774 65.9819 76.6682 66.0736 77.0674 66.2569C77.4637 66.4403 77.783 66.6887 78.0255 66.9962C78.268 67.3067 78.4395 67.6674 78.54 68.0785C78.6406 68.4895 78.6938 68.9242 78.6938 69.3796V73.2858Z" fill="#6D5A9C"></path><path d="M88.4638 63.5159C88.6176 63.5159 88.7359 63.5573 88.8127 63.6401C88.8896 63.7229 88.9576 63.8471 89.0168 64.0097L92.5741 73.1853C92.583 73.2149 92.5889 73.2474 92.5889 73.2859C92.5889 73.3923 92.5504 73.484 92.4735 73.5609C92.3967 73.6378 92.305 73.6762 92.1985 73.6762H91.1547C90.9625 73.6762 90.8265 73.6348 90.7466 73.552C90.6698 73.4692 90.6165 73.3894 90.587 73.3125L89.963 71.7009H85.3767L84.7528 73.3125C84.7232 73.3894 84.67 73.4692 84.5931 73.552C84.5162 73.6348 84.3802 73.6762 84.185 73.6762H83.1412C83.0347 73.6762 82.9431 73.6378 82.8662 73.5609C82.7893 73.484 82.7509 73.3923 82.7509 73.2859C82.7509 73.2474 82.7568 73.2119 82.7656 73.1853L86.3229 64.0097C86.3821 63.8441 86.4501 63.7229 86.527 63.6401C86.6039 63.5573 86.7192 63.5159 86.8759 63.5159H88.4638ZM89.2622 69.8883L87.6654 65.7514L86.0686 69.8883H89.2622Z" fill="#6D5A9C"></path><path d="M98.1895 63.5159C99.3604 63.5159 100.271 63.7909 100.919 64.3438C101.566 64.8968 101.892 65.7041 101.892 66.7686C101.892 67.8331 101.566 68.6463 100.919 69.2081C100.271 69.77 99.3604 70.0509 98.1895 70.0509H95.8682V73.2888C95.8682 73.3953 95.8298 73.4869 95.7529 73.5638C95.676 73.6407 95.5843 73.6792 95.4779 73.6792H94.301C94.1945 73.6792 94.1029 73.6407 94.026 73.5638C93.9491 73.4869 93.9106 73.3953 93.9106 73.2888V63.9121C93.9106 63.8057 93.9491 63.714 94.026 63.6371C94.1029 63.5602 94.1945 63.5218 94.301 63.5218H98.1895V63.5159ZM95.8682 68.2323H98.1185C98.6715 68.2323 99.1121 68.1229 99.4403 67.907C99.7685 67.6882 99.9341 67.3097 99.9341 66.7686C99.9341 66.2275 99.7685 65.8519 99.4403 65.6449C99.1121 65.4379 98.6715 65.3315 98.1185 65.3315H95.8682V68.2323Z" fill="#6D5A9C"></path><path d="M103.11 67.2741C103.128 66.6946 103.237 66.1623 103.429 65.6833C103.621 65.2042 103.902 64.7932 104.272 64.4502C104.639 64.1072 105.091 63.841 105.629 63.6518C106.167 63.4625 106.791 63.3679 107.51 63.3679C108.353 63.3679 109.048 63.4773 109.595 63.6932C110.142 63.912 110.576 64.1722 110.902 64.4768C111.227 64.7814 111.455 65.0978 111.585 65.4201C111.715 65.7454 111.792 66.0174 111.809 66.2421C111.818 66.3575 111.783 66.4521 111.7 66.526C111.617 66.5999 111.523 66.6354 111.416 66.6354H110.239C110.133 66.6354 110.047 66.6088 109.985 66.5556C109.923 66.5024 109.876 66.4462 109.846 66.39C109.825 66.3516 109.775 66.2658 109.692 66.1357C109.609 66.0056 109.479 65.8696 109.299 65.7276C109.119 65.5886 108.885 65.4615 108.595 65.3491C108.305 65.2368 107.942 65.1835 107.507 65.1835C106.783 65.1835 106.2 65.3787 105.765 65.772C105.331 66.1623 105.097 66.6887 105.067 67.3481C105.047 67.7147 105.038 68.111 105.038 68.5309C105.038 68.9508 105.047 69.347 105.067 69.7137C105.097 70.518 105.328 71.1005 105.765 71.4642C106.2 71.828 106.783 72.0083 107.507 72.0083C107.865 72.0083 108.193 71.9699 108.495 71.893C108.793 71.8161 109.054 71.689 109.272 71.5145C109.491 71.3401 109.66 71.1094 109.781 70.8255C109.902 70.5387 109.961 70.1898 109.961 69.7728V69.6575H108.19C108.084 69.6575 107.992 69.6191 107.915 69.5422C107.838 69.4653 107.8 69.3736 107.8 69.2672V68.2352C107.8 68.1287 107.838 68.0371 107.915 67.9602C107.992 67.8833 108.084 67.8449 108.19 67.8449H111.529C111.635 67.8449 111.727 67.8833 111.804 67.9602C111.88 68.0371 111.919 68.1287 111.919 68.2352V69.832C111.919 70.4115 111.827 70.9468 111.644 71.4347C111.461 71.9226 111.186 72.3454 110.816 72.6973C110.449 73.0492 109.988 73.3272 109.438 73.5253C108.885 73.7234 108.243 73.824 107.507 73.824C106.771 73.824 106.132 73.7264 105.591 73.5342C105.05 73.342 104.597 73.0699 104.239 72.721C103.882 72.3721 103.607 71.9551 103.42 71.4642C103.231 70.9763 103.128 70.4411 103.107 69.8615C103.098 69.6782 103.089 69.4742 103.086 69.2524C103.08 69.0306 103.08 68.8029 103.08 68.5693C103.08 68.3387 103.083 68.111 103.086 67.8862C103.092 67.6615 103.101 67.4604 103.11 67.2741Z" fill="#6D5A9C"></path><path d="M65.2364 41.9739V58.9797H74.2553V52.1253L65.2364 41.9739Z" fill="#6D5A9C"></path><path d="M74.2553 27.6441C74.2553 17.815 82.2541 9.81626 92.0832 9.81626C100.576 9.81626 107.687 15.7894 109.471 23.7527H118.614C116.718 10.7921 105.561 0.800293 92.0832 0.800293C79.7731 0.800293 69.3969 9.1391 66.2448 20.4586L74.3973 29.7791C74.3115 29.0783 74.2553 28.3686 74.2553 27.6441Z" fill="#6D5A9C"></path><path d="M118.886 26.7896H116.697H109.87H86.2519V35.8085H107.915C104.946 41.5392 98.9731 45.472 92.0862 45.472C86.1544 45.472 80.9057 42.5475 77.6618 38.0795L65.4936 24.1637C65.4907 24.1785 65.4907 24.1963 65.4877 24.211L54.2599 11.3007C48.5351 4.71244 40.8498 0.735241 32.6263 0.102438C31.9965 0.0551258 31.3637 0.0225985 30.7161 0.0078134C22.6346 -0.175522 15.0202 2.87317 9.15941 8.55657C3.33112 14.2045 0.0783961 21.7094 0.00151355 29.6845C-0.0783261 37.7542 3.00289 45.3538 8.67446 51.0845C14.349 56.8152 21.919 59.9733 29.9857 59.9733C38.4044 59.9733 46.0246 56.4869 51.4744 50.8804C52.9293 55.5052 57.2583 58.8733 62.3592 58.8733V49.8543C61.0433 49.8543 59.9729 48.7839 59.9729 47.468V36.045L50.9658 25.9025L50.954 29.9861C50.954 41.5481 41.5477 50.9544 29.9857 50.9544C24.3437 50.9544 19.0536 48.7455 15.0823 44.7387C11.114 40.7319 8.96129 35.4182 9.01748 29.7732C9.0707 24.2258 11.3506 18.9889 15.4342 15.0295C19.4439 11.141 24.6306 9.01786 30.0715 9.01786C30.2193 9.01786 30.3672 9.02082 30.5121 9.02082C30.9852 9.03265 31.4583 9.05335 31.9314 9.09179C37.6947 9.53534 43.3544 12.4983 47.4558 17.2147L48.9107 18.8884L55.9927 27.035L69.7725 42.5475C74.5924 49.739 82.7922 54.488 92.0832 54.488C106.886 54.488 118.93 42.447 118.93 27.6441C118.93 27.3573 118.895 27.0764 118.886 26.7896Z" fill="#88B574"></path></svg>