<svg xmlns="http://www.w3.org/2000/svg" width="170" height="112" viewBox="0 0 170 112" fill="none"><path d="M163.86 24.5798C156.204 9.78524 141.488 0.643066 125.149 0.643066C108.811 0.643066 93.6413 10.4979 86.2712 24.8993L98.4116 46.7717V45.887C98.4116 30.6992 110.409 18.3622 125.125 18.3622C130.897 18.3622 136.336 20.2545 140.82 23.5722C141.13 23.818 141.44 24.0637 141.726 24.2849C141.845 24.3832 141.965 24.4815 142.084 24.5798C144.994 26.9637 147.188 29.9619 148.738 33.4025H167.343C166.46 30.306 165.268 27.3569 163.813 24.5798H163.86Z" fill="#8FC368"></path><path d="M85.1262 71.2244L85.0308 71.0032V70.9541L81.31 64.2449V91.2782H98.4831V85.7486C93.2119 81.9886 88.6801 77.098 85.174 71.2244H85.1262Z" fill="#8FC368"></path><path d="M168.941 41.7092L168.249 37.0152H123.551V54.7098H150.456C146.878 65.5722 136.884 73.3873 125.149 73.3873C115.823 73.3873 107.332 68.5213 102.419 60.3376L81.2385 22.2206L81.1908 22.2698C73.4629 9.36754 59.629 0.741455 43.8392 0.741455C19.6776 0.741455 0 21.0164 0 45.9116C0 70.8069 19.6776 91.0818 43.8392 91.0818C49.7783 91.0818 55.4311 89.8531 60.583 87.6412V91.0818H77.7562V74.4932V57.9538L70.6007 45.0269C70.6007 45.3218 70.6007 45.6167 70.6007 45.9362C70.6007 61.1486 58.5795 73.5348 43.8154 73.5348C29.0512 73.5348 17.03 61.1486 17.03 45.9362C17.03 30.7238 29.0751 18.3131 43.8392 18.3131C54.0954 18.3131 63.0159 24.285 67.5238 33.034L87.6307 69.3815L87.7261 69.5535C95.788 83.0456 109.765 91.1064 125.125 91.1064C149.335 91.1064 169.012 70.8069 169.012 45.8871L168.917 41.7338L168.941 41.7092Z" fill="#58519E"></path><path d="M7.87097 111.234V99.9537C7.87097 99.536 8.13334 99.2656 8.53882 99.2656H11.9734C14.2393 99.2656 16.0759 101.133 16.0759 103.468C16.0759 105.803 14.2393 107.695 11.9734 107.695H9.92221V111.234C9.92221 111.652 9.65984 111.922 9.25436 111.922H8.53882C8.13334 111.922 7.87097 111.652 7.87097 111.234ZM9.94606 105.606H11.9973C13.1422 105.606 14.0724 104.648 14.0724 103.468C14.0724 102.288 13.1422 101.355 11.9973 101.355H9.94606V105.582V105.606Z" fill="#949CAA"></path><path d="M15.9328 108.751C15.9328 107.006 17.2923 105.581 19.0097 105.581H22.0865C22.0865 104.991 21.6095 104.524 21.0609 104.524H18.6519C18.2464 104.524 17.984 104.254 17.984 103.836V103.123C17.984 102.706 18.2464 102.435 18.6519 102.435H21.0609C22.7544 102.435 24.1377 103.836 24.1377 105.606V111.233C24.1377 111.651 23.8515 111.922 23.446 111.922H19.0335C17.34 111.922 15.9567 110.521 15.9567 108.751H15.9328ZM19.0097 109.808H22.0865V107.67H19.0097C18.4372 107.67 17.984 108.161 17.984 108.727C17.984 109.292 18.4611 109.783 19.0097 109.783V109.808Z" fill="#949CAA"></path><path d="M25.3542 110.103C25.3542 109.906 25.4497 109.71 25.5451 109.587L30.6016 104.5H26.0221C25.6166 104.5 25.3542 104.229 25.3542 103.812V103.099C25.3542 102.681 25.6166 102.411 26.0221 102.411H32.8675C33.273 102.411 33.5353 102.681 33.5353 103.099V104.205C33.5353 104.402 33.4399 104.598 33.3445 104.721L28.288 109.808H32.8675C33.273 109.808 33.5353 110.079 33.5353 110.496V111.209C33.5353 111.627 33.273 111.897 32.8675 111.897H26.0221C25.6166 111.897 25.3542 111.627 25.3542 111.209V110.103Z" fill="#949CAA"></path><path d="M55.1449 99.9537C55.1449 99.536 55.4073 99.2656 55.8127 99.2656H59.2474C61.5133 99.2656 63.3498 101.133 63.3498 103.468C63.3498 105.262 62.2527 106.81 60.7262 107.425L62.7536 110.89C63.1113 111.504 62.8967 111.922 62.1811 111.922H61.3463C61.1316 111.922 60.8931 111.775 60.7739 111.578L58.508 107.695H57.22V111.234C57.22 111.652 56.9576 111.922 56.5521 111.922H55.8366C55.4311 111.922 55.1687 111.652 55.1687 111.234V99.9537H55.1449ZM57.22 101.355V105.582H59.2712C60.4161 105.582 61.3463 104.623 61.3463 103.444C61.3463 102.264 60.4161 101.33 59.2712 101.33H57.22V101.355Z" fill="#949CAA"></path><path d="M64.28 107.179V106.613C64.28 104.254 66.0927 102.411 68.3825 102.411C70.6722 102.411 72.4611 104.279 72.4611 106.613V108.039C72.4611 108.457 72.1987 108.727 71.7933 108.727H66.8321L67.0707 108.997C67.5238 109.489 68.1678 109.784 68.8595 109.784H69.742C70.1475 109.784 70.4099 110.054 70.4099 110.472V111.184C70.4099 111.602 70.1475 111.873 69.742 111.873H68.8595C66.3551 111.873 64.2562 109.734 64.2562 107.129L64.28 107.179ZM66.3312 106.613H70.4337C70.4337 105.483 69.4797 104.5 68.3825 104.5C67.2853 104.5 66.3074 105.458 66.3074 106.613H66.3312Z" fill="#949CAA"></path><path d="M77.947 102.411H80.8569C81.2623 102.411 81.5247 102.681 81.5247 103.099V103.812C81.5247 104.23 81.2623 104.5 80.8569 104.5H77.947C76.5397 104.5 75.371 105.68 75.371 107.13C75.371 108.579 76.5397 109.784 77.947 109.784H80.8569C81.2623 109.784 81.5247 110.054 81.5247 110.472V111.185C81.5247 111.602 81.2623 111.873 80.8569 111.873H77.947C75.3949 111.873 73.3198 109.735 73.3198 107.105C73.3198 104.475 75.3949 102.362 77.947 102.362V102.411Z" fill="#949CAA"></path><path d="M86.3665 102.411C88.6324 102.411 90.469 104.279 90.469 106.613V107.67C90.469 110.005 88.6324 111.897 86.3665 111.897C84.1006 111.897 82.264 110.005 82.264 107.67V106.613C82.264 104.279 84.1006 102.411 86.3665 102.411ZM84.3153 107.67C84.3153 108.85 85.2455 109.808 86.3665 109.808C87.4875 109.808 88.4416 108.85 88.4416 107.67V106.613C88.4416 105.458 87.5114 104.5 86.3665 104.5C85.2216 104.5 84.3153 105.458 84.3153 106.613V107.67Z" fill="#949CAA"></path><path d="M91.8524 111.234V103.124C91.8524 102.706 92.1148 102.435 92.5203 102.435H93.6174C93.7844 102.435 93.8798 102.558 93.8798 102.706V102.976C94.4761 102.632 95.1916 102.411 95.9549 102.411C98.2208 102.411 100.057 104.279 100.057 106.613V111.209C100.057 111.627 99.795 111.897 99.3895 111.897H98.674C98.2685 111.897 98.0061 111.627 98.0061 111.209V106.613C98.0061 105.458 97.0759 104.5 95.9549 104.5C94.8339 104.5 93.8798 105.458 93.8798 106.613V111.209C93.8798 111.627 93.6174 111.897 93.212 111.897H92.5203C92.1148 111.897 91.8524 111.627 91.8524 111.209V111.234Z" fill="#949CAA"></path><path d="M105.782 102.411H108.692C109.097 102.411 109.359 102.681 109.359 103.099V103.812C109.359 104.23 109.097 104.5 108.692 104.5H105.782C104.374 104.5 103.206 105.68 103.206 107.13C103.206 108.579 104.374 109.784 105.782 109.784H108.692C109.097 109.784 109.359 110.054 109.359 110.472V111.185C109.359 111.602 109.097 111.873 108.692 111.873H105.782C103.23 111.873 101.154 109.735 101.154 107.105C101.154 104.475 103.23 102.362 105.782 102.362V102.411Z" fill="#949CAA"></path><path d="M111.673 99.241C112.317 99.241 112.842 99.7816 112.842 100.421C112.842 101.06 112.317 101.6 111.673 101.6C111.029 101.6 110.528 101.06 110.528 100.421C110.528 99.7816 111.053 99.241 111.673 99.241ZM111.339 102.411H112.031C112.436 102.411 112.699 102.682 112.699 103.099V111.209C112.699 111.627 112.436 111.897 112.031 111.897H111.339C110.934 111.897 110.671 111.627 110.671 111.209V103.099C110.671 102.682 110.934 102.411 111.339 102.411Z" fill="#949CAA"></path><path d="M114.416 111.234V99.9537C114.416 99.536 114.678 99.2656 115.084 99.2656H115.776C116.181 99.2656 116.443 99.536 116.443 99.9537V111.234C116.443 111.652 116.181 111.922 115.776 111.922H115.084C114.678 111.922 114.416 111.652 114.416 111.234Z" fill="#949CAA"></path><path d="M119.163 99.241C119.807 99.241 120.331 99.7816 120.331 100.421C120.331 101.06 119.807 101.6 119.163 101.6C118.519 101.6 118.018 101.06 118.018 100.421C118.018 99.7816 118.542 99.241 119.163 99.241ZM118.829 102.411H119.52C119.926 102.411 120.188 102.682 120.188 103.099V111.209C120.188 111.627 119.926 111.897 119.52 111.897H118.829C118.423 111.897 118.161 111.627 118.161 111.209V103.099C118.161 102.682 118.423 102.411 118.829 102.411Z" fill="#949CAA"></path><path d="M121.381 108.751C121.381 107.006 122.74 105.581 124.458 105.581H127.534C127.534 104.991 127.057 104.524 126.509 104.524H124.1C123.694 104.524 123.432 104.254 123.432 103.836V103.123C123.432 102.706 123.694 102.435 124.1 102.435H126.509C128.202 102.435 129.586 103.836 129.586 105.606V111.233C129.586 111.651 129.299 111.922 128.894 111.922H124.481C122.788 111.922 121.405 110.521 121.405 108.751H121.381ZM124.458 109.808H127.534V107.67H124.458C123.885 107.67 123.432 108.161 123.432 108.727C123.432 109.292 123.909 109.783 124.458 109.783V109.808Z" fill="#949CAA"></path><path d="M135.358 102.411H138.268C138.673 102.411 138.935 102.681 138.935 103.099V103.812C138.935 104.23 138.673 104.5 138.268 104.5H135.358C133.95 104.5 132.782 105.68 132.782 107.13C132.782 108.579 133.95 109.784 135.358 109.784H138.268C138.673 109.784 138.935 110.054 138.935 110.472V111.185C138.935 111.602 138.673 111.873 138.268 111.873H135.358C132.806 111.873 130.731 109.735 130.731 107.105C130.731 104.475 132.806 102.362 135.358 102.362V102.411Z" fill="#949CAA"></path><path d="M141.273 99.241C141.917 99.241 142.442 99.7816 142.442 100.421C142.442 101.06 141.917 101.6 141.273 101.6C140.629 101.6 140.128 101.06 140.128 100.421C140.128 99.7816 140.653 99.241 141.273 99.241ZM140.939 102.411H141.631C142.036 102.411 142.299 102.682 142.299 103.099V111.209C142.299 111.627 142.036 111.897 141.631 111.897H140.939C140.534 111.897 140.271 111.627 140.271 111.209V103.099C140.271 102.682 140.534 102.411 140.939 102.411Z" fill="#949CAA"></path><path d="M143.634 107.695V106.638C143.634 104.303 145.471 102.436 147.737 102.436C150.003 102.436 151.839 104.303 151.839 106.638V107.695C151.839 110.03 150.003 111.922 147.737 111.922C145.471 111.922 143.634 110.03 143.634 107.695ZM147.737 109.833C148.882 109.833 149.812 108.875 149.812 107.695V106.638C149.812 105.483 148.882 104.525 147.737 104.525C146.592 104.525 145.685 105.483 145.685 106.638V107.695C145.685 108.875 146.616 109.833 147.737 109.833ZM147.021 99.9535L147.832 98.1349C147.951 97.9137 148.19 97.7417 148.428 97.7417H149.406C150.17 97.7417 150.384 98.1841 149.979 98.823L148.834 100.592C148.715 100.789 148.5 100.887 148.261 100.887H147.617C146.997 100.887 146.759 100.494 147.021 99.9289V99.9535Z" fill="#949CAA"></path><path d="M153.223 111.234V103.124C153.223 102.706 153.485 102.435 153.89 102.435H154.988C155.155 102.435 155.25 102.558 155.25 102.706V102.976C155.846 102.632 156.562 102.411 157.325 102.411C159.591 102.411 161.428 104.279 161.428 106.613V111.209C161.428 111.627 161.165 111.897 160.76 111.897H160.044C159.639 111.897 159.376 111.627 159.376 111.209V106.613C159.376 105.458 158.446 104.5 157.325 104.5C156.204 104.5 155.25 105.458 155.25 106.613V111.209C155.25 111.627 154.988 111.897 154.582 111.897H153.89C153.485 111.897 153.223 111.627 153.223 111.209V111.234Z" fill="#949CAA"></path><path d="M40.7862 101.969C40.7862 101.453 40.9293 100.961 41.1917 100.543C41.4541 100.101 41.8357 99.7815 42.3604 99.5112C42.8613 99.2655 43.4814 99.1426 44.1731 99.1426C44.8648 99.1426 45.4611 99.2655 45.962 99.5358C46.4629 99.8061 46.8445 100.15 47.083 100.568C47.3215 100.986 47.4647 101.428 47.4647 101.895C47.4647 102.534 47.2738 103.075 46.8684 103.542C46.4629 104.009 45.8666 104.476 45.0795 104.967C45.3419 105.311 45.6042 105.606 45.8427 105.901C46.0813 106.196 46.2959 106.466 46.5106 106.712C46.7253 106.958 46.9399 107.179 47.1069 107.351C47.1784 107.203 47.3215 106.909 47.4885 106.466C47.6555 106.024 47.8224 105.729 47.9655 105.532C48.1087 105.336 48.3233 105.237 48.6095 105.237C48.8719 105.237 49.0866 105.336 49.2774 105.532C49.4682 105.729 49.5636 105.95 49.5636 106.22C49.5636 106.466 49.4682 106.81 49.3012 107.277C49.1343 107.72 48.8958 108.236 48.5618 108.776C48.7526 108.948 49.0866 109.219 49.5159 109.587C49.9452 109.956 50.2314 110.202 50.3268 110.325C50.4223 110.447 50.47 110.644 50.47 110.841C50.47 111.136 50.3746 111.381 50.1599 111.578C49.9452 111.774 49.7306 111.873 49.4682 111.873C49.2058 111.873 48.9673 111.799 48.7288 111.627C48.4903 111.455 47.9655 111.037 47.2023 110.398C46.8445 110.742 46.4867 111.013 46.1051 111.234C45.7235 111.455 45.318 111.627 44.8887 111.725C44.4594 111.824 43.9585 111.897 43.4337 111.897C42.742 111.897 42.1458 111.799 41.5972 111.578C41.0486 111.381 40.5954 111.086 40.2376 110.742C39.8799 110.398 39.6175 110.005 39.4267 109.587C39.2597 109.169 39.1643 108.727 39.1643 108.285C39.1643 107.842 39.2359 107.474 39.3551 107.13C39.4744 106.786 39.6652 106.466 39.9037 106.171C40.1422 105.876 40.4284 105.606 40.7862 105.36C41.144 105.114 41.5256 104.844 42.0026 104.623C41.5972 104.082 41.2871 103.615 41.0724 103.198C40.8578 102.78 40.7624 102.362 40.7624 101.92L40.7862 101.969ZM43.0998 105.999C42.5512 106.343 42.1219 106.663 41.8595 107.007C41.5733 107.351 41.4541 107.744 41.4541 108.186C41.4541 108.457 41.5018 108.703 41.5972 108.924C41.6926 109.169 41.8357 109.391 42.0503 109.587C42.2412 109.784 42.4797 109.956 42.7182 110.054C42.9567 110.153 43.2429 110.226 43.5291 110.226C43.8154 110.226 44.0777 110.177 44.3401 110.103C44.6025 110.03 44.841 109.882 45.0795 109.71C45.318 109.538 45.5565 109.342 45.8189 109.096C45.3419 108.629 44.8887 108.186 44.5071 107.72C44.1254 107.277 43.6484 106.712 43.1237 106.024L43.0998 105.999ZM43.9346 103.689C44.4832 103.32 44.8887 103.026 45.1511 102.755C45.3896 102.509 45.5327 102.215 45.5327 101.846C45.5327 101.477 45.4134 101.207 45.1511 100.961C44.9125 100.715 44.5786 100.617 44.2208 100.617C43.8631 100.617 43.5291 100.74 43.2668 100.986C43.0044 101.232 42.8852 101.502 42.8852 101.846C42.8852 102.018 42.9329 102.19 43.0283 102.387C43.1237 102.583 43.2429 102.78 43.386 102.976C43.5291 103.173 43.72 103.419 43.9346 103.714V103.689Z" fill="#949CAA"></path></svg>