<svg xmlns="http://www.w3.org/2000/svg" width="196" height="102" viewBox="0 0 196 102" fill="none"><path d="M190.005 26.9382C181.127 10.2885 164.063 0 145.117 0C126.172 0 108.582 11.0906 100.036 27.2977L114.114 51.9126V50.917C114.114 33.8248 128.025 19.9409 145.09 19.9409C151.783 19.9409 158.089 22.0705 163.288 25.8042C163.648 26.0808 164.007 26.3574 164.339 26.6063C164.478 26.7169 164.616 26.8275 164.754 26.9382C168.128 29.6209 170.673 32.9951 172.47 36.8671H194.043C193.02 33.3823 191.637 30.0634 189.95 26.9382H190.005Z" fill="#8FC368"></path><path d="M98.7086 79.4313L98.598 79.1824V79.1271L94.2834 71.5767V102H114.197V95.7768C108.084 91.5452 102.83 86.0414 98.7639 79.4313H98.7086Z" fill="#8FC368"></path><path d="M195.896 46.2155L195.094 40.9329H143.265V60.8461H174.462C170.313 73.0706 158.725 81.8657 145.118 81.8657C134.304 81.8657 124.458 76.3895 118.76 67.1797L94.2006 24.2833L94.1453 24.3386C85.1843 9.81853 69.1431 0.11084 50.834 0.11084C22.8172 0.11084 0 22.9281 0 50.9449C0 78.9616 22.8172 101.779 50.834 101.779C57.7207 101.779 64.2754 100.396 70.2494 97.9069V101.779H90.1626V83.1102V64.4969L81.8654 49.9492C81.8654 50.2811 81.8654 50.613 81.8654 50.9725C81.8654 68.0923 67.9262 82.0316 50.8064 82.0316C33.6865 82.0316 19.7473 68.0923 19.7473 50.9725C19.7473 33.8527 33.7142 19.8858 50.834 19.8858C62.7266 19.8858 73.0704 26.6065 78.2977 36.4525L101.613 77.3575L101.723 77.5511C111.071 92.7349 127.279 101.807 145.09 101.807C173.162 101.807 195.979 78.9616 195.979 50.9172L195.869 46.2431L195.896 46.2155Z" fill="#58519E"></path></svg>