<svg xmlns="http://www.w3.org/2000/svg" width="119" height="76" viewBox="0 0 119 76" fill="none"><path d="M115.309 16.3481C109.921 6.24381 99.5654 0 88.068 0C76.5707 0 65.8957 6.73056 60.7094 16.5662L69.2526 31.5044V30.9002C69.2526 20.5274 77.6952 12.1016 88.0512 12.1016C92.1131 12.1016 95.9399 13.394 99.0954 15.6599C99.3136 15.8277 99.5318 15.9956 99.7332 16.1466C99.8171 16.2138 99.901 16.2809 99.985 16.3481C102.033 17.9761 103.577 20.0238 104.668 22.3737H117.76C117.139 20.2588 116.299 18.2447 115.276 16.3481H115.309Z" fill="#8FC368"></path><path d="M59.9036 48.2048L59.8365 48.0537V48.0201L57.2181 43.438V61.9009H69.3029V58.1244C65.5936 55.5564 62.4045 52.2163 59.9372 48.2048H59.9036Z" fill="#8FC368"></path><path d="M118.884 28.0468L118.397 24.841H86.9434V36.9258H105.876C103.359 44.3445 96.326 49.682 88.068 49.682C81.5053 49.682 75.53 46.3586 72.0724 40.7694L57.1678 14.7367L57.1343 14.7703C51.6961 5.95848 41.9611 0.0671387 30.8498 0.0671387C13.8472 0.0671387 0 13.9143 0 30.917C0 47.9196 13.8472 61.7668 30.8498 61.7668C35.0291 61.7668 39.0071 60.9276 42.6325 59.417V61.7668H54.7173V50.4373V39.1413L49.682 30.3127C49.682 30.5141 49.682 30.7155 49.682 30.9337C49.682 41.3233 41.2226 49.7827 30.833 49.7827C20.4435 49.7827 11.9841 41.3233 11.9841 30.9337C11.9841 20.5442 20.4602 12.068 30.8498 12.068C38.0671 12.068 44.3445 16.1466 47.5168 22.1219L61.6661 46.9461L61.7332 47.0636C67.4063 56.2783 77.242 61.7836 88.0512 61.7836C105.087 61.7836 118.935 47.9196 118.935 30.9002L118.867 28.0636L118.884 28.0468Z" fill="#58519E"></path><path d="M5.53882 75.5302V67.8262C5.53882 67.5408 5.72345 67.3562 6.00878 67.3562H8.42574C10.0203 67.3562 11.3127 68.6318 11.3127 70.2263C11.3127 71.8209 10.0203 73.1133 8.42574 73.1133H6.98228V75.5302C6.98228 75.8156 6.79765 76.0002 6.51232 76.0002H6.00878C5.72345 76.0002 5.53882 75.8156 5.53882 75.5302ZM6.99907 71.6866H8.44253C9.24818 71.6866 9.90278 71.032 9.90278 70.2263C9.90278 69.4207 9.24818 68.7829 8.44253 68.7829H6.99907V71.6698V71.6866Z" fill="#949CAA"></path><path d="M11.212 73.8346C11.212 72.6429 12.1687 71.6694 13.3772 71.6694H15.5424C15.5424 71.2666 15.2067 70.9477 14.8206 70.9477H13.1254C12.8401 70.9477 12.6554 70.7631 12.6554 70.4777V69.991C12.6554 69.7056 12.8401 69.521 13.1254 69.521H14.8206C16.0123 69.521 16.9858 70.4777 16.9858 71.6862V75.5298C16.9858 75.8152 16.7844 75.9998 16.4991 75.9998H13.394C12.2023 75.9998 11.2288 75.0431 11.2288 73.8346H11.212ZM13.3772 74.5563H15.5424V73.0961H13.3772C12.9743 73.0961 12.6554 73.4318 12.6554 73.8178C12.6554 74.2039 12.9911 74.5395 13.3772 74.5395V74.5563Z" fill="#949CAA"></path><path d="M17.8419 74.7577C17.8419 74.6234 17.909 74.4891 17.9761 74.4052L21.5344 70.9308H18.3118C18.0265 70.9308 17.8419 70.7462 17.8419 70.4609V69.9741C17.8419 69.6888 18.0265 69.5042 18.3118 69.5042H23.129C23.4143 69.5042 23.5989 69.6888 23.5989 69.9741V70.7294C23.5989 70.8637 23.5318 70.998 23.4646 71.0819L19.9063 74.5563H23.129C23.4143 74.5563 23.5989 74.7409 23.5989 75.0262V75.513C23.5989 75.7983 23.4143 75.9829 23.129 75.9829H18.3118C18.0265 75.9829 17.8419 75.7983 17.8419 75.513V74.7577Z" fill="#949CAA"></path><path d="M38.8057 67.8262C38.8057 67.5408 38.9903 67.3562 39.2756 67.3562H41.6926C43.2871 67.3562 44.5795 68.6318 44.5795 70.2263C44.5795 71.4516 43.8074 72.509 42.7332 72.9286L44.1599 75.2952C44.4117 75.7149 44.2606 76.0002 43.7571 76.0002H43.1696C43.0186 76.0002 42.8507 75.8995 42.7668 75.7652L41.1723 73.1133H40.2659V75.5302C40.2659 75.8156 40.0813 76.0002 39.7959 76.0002H39.2924C39.0071 76.0002 38.8224 75.8156 38.8224 75.5302V67.8262H38.8057ZM40.2659 68.7829V71.6698H41.7094C42.515 71.6698 43.1696 71.0152 43.1696 70.2096C43.1696 69.4039 42.515 68.7661 41.7094 68.7661H40.2659V68.7829Z" fill="#949CAA"></path><path d="M45.2341 72.7603V72.3743C45.2341 70.763 46.5097 69.5042 48.121 69.5042C49.7323 69.5042 50.9911 70.7798 50.9911 72.3743V73.3478C50.9911 73.6331 50.8065 73.8178 50.5212 73.8178H47.03L47.1979 74.0024C47.5168 74.3381 47.9699 74.5395 48.4567 74.5395H49.0777C49.363 74.5395 49.5477 74.7241 49.5477 75.0094V75.4962C49.5477 75.7815 49.363 75.9662 49.0777 75.9662H48.4567C46.6943 75.9662 45.2173 74.5059 45.2173 72.7268L45.2341 72.7603ZM46.6775 72.3743H49.5645C49.5645 71.6022 48.8931 70.9308 48.121 70.9308C47.3489 70.9308 46.6607 71.5854 46.6607 72.3743H46.6775Z" fill="#949CAA"></path><path d="M54.8516 69.5043H56.8993C57.1846 69.5043 57.3692 69.6889 57.3692 69.9742V70.461C57.3692 70.7463 57.1846 70.9309 56.8993 70.9309H54.8516C53.8613 70.9309 53.0389 71.7366 53.0389 72.7269C53.0389 73.7172 53.8613 74.5396 54.8516 74.5396H56.8993C57.1846 74.5396 57.3692 74.7242 57.3692 75.0096V75.4963C57.3692 75.7817 57.1846 75.9663 56.8993 75.9663H54.8516C53.0556 75.9663 51.5954 74.506 51.5954 72.7101C51.5954 70.9142 53.0556 69.4707 54.8516 69.4707V69.5043Z" fill="#949CAA"></path><path d="M60.7764 69.5042C62.371 69.5042 63.6634 70.7798 63.6634 72.3743V73.096C63.6634 74.6905 62.371 75.9829 60.7764 75.9829C59.1819 75.9829 57.8895 74.6905 57.8895 73.096V72.3743C57.8895 70.7798 59.1819 69.5042 60.7764 69.5042ZM59.333 73.096C59.333 73.9017 59.9876 74.5563 60.7764 74.5563C61.5653 74.5563 62.2367 73.9017 62.2367 73.096V72.3743C62.2367 71.5854 61.5821 70.9308 60.7764 70.9308C59.9708 70.9308 59.333 71.5854 59.333 72.3743V73.096Z" fill="#949CAA"></path><path d="M64.6369 75.5298V69.9909C64.6369 69.7056 64.8215 69.5209 65.1069 69.5209H65.879C65.9964 69.5209 66.0636 69.6049 66.0636 69.7056V69.8902C66.4832 69.6552 66.9867 69.5042 67.5238 69.5042C69.1184 69.5042 70.4108 70.7798 70.4108 72.3743V75.513C70.4108 75.7983 70.2261 75.9829 69.9408 75.9829H69.4373C69.1519 75.9829 68.9673 75.7983 68.9673 75.513V72.3743C68.9673 71.5854 68.3127 70.9308 67.5238 70.9308C66.735 70.9308 66.0636 71.5854 66.0636 72.3743V75.513C66.0636 75.7983 65.879 75.9829 65.5936 75.9829H65.1069C64.8215 75.9829 64.6369 75.7983 64.6369 75.513V75.5298Z" fill="#949CAA"></path><path d="M74.439 69.5043H76.4867C76.772 69.5043 76.9566 69.6889 76.9566 69.9742V70.461C76.9566 70.7463 76.772 70.9309 76.4867 70.9309H74.439C73.4487 70.9309 72.6263 71.7366 72.6263 72.7269C72.6263 73.7172 73.4487 74.5396 74.439 74.5396H76.4867C76.772 74.5396 76.9566 74.7242 76.9566 75.0096V75.4963C76.9566 75.7817 76.772 75.9663 76.4867 75.9663H74.439C72.643 75.9663 71.1828 74.506 71.1828 72.7101C71.1828 70.9142 72.643 69.4707 74.439 69.4707V69.5043Z" fill="#949CAA"></path><path d="M78.5847 67.3394C79.0379 67.3394 79.4071 67.7086 79.4071 68.145C79.4071 68.5814 79.0379 68.9507 78.5847 68.9507C78.1315 68.9507 77.7791 68.5814 77.7791 68.145C77.7791 67.7086 78.1483 67.3394 78.5847 67.3394ZM78.3497 69.5046H78.8365C79.1218 69.5046 79.3064 69.6892 79.3064 69.9745V75.5134C79.3064 75.7987 79.1218 75.9833 78.8365 75.9833H78.3497C78.0644 75.9833 77.8798 75.7987 77.8798 75.5134V69.9745C77.8798 69.6892 78.0644 69.5046 78.3497 69.5046Z" fill="#949CAA"></path><path d="M80.515 75.5302V67.8262C80.515 67.5408 80.6996 67.3562 80.9849 67.3562H81.4717C81.757 67.3562 81.9416 67.5408 81.9416 67.8262V75.5302C81.9416 75.8156 81.757 76.0002 81.4717 76.0002H80.9849C80.6996 76.0002 80.515 75.8156 80.515 75.5302Z" fill="#949CAA"></path><path d="M83.8551 67.3394C84.3083 67.3394 84.6775 67.7086 84.6775 68.145C84.6775 68.5814 84.3083 68.9507 83.8551 68.9507C83.4019 68.9507 83.0494 68.5814 83.0494 68.145C83.0494 67.7086 83.4187 67.3394 83.8551 67.3394ZM83.6201 69.5046H84.1069C84.3922 69.5046 84.5768 69.6892 84.5768 69.9745V75.5134C84.5768 75.7987 84.3922 75.9833 84.1069 75.9833H83.6201C83.3348 75.9833 83.1501 75.7987 83.1501 75.5134V69.9745C83.1501 69.6892 83.3348 69.5046 83.6201 69.5046Z" fill="#949CAA"></path><path d="M85.4161 73.8346C85.4161 72.6429 86.3728 71.6694 87.5813 71.6694H89.7465C89.7465 71.2666 89.4108 70.9477 89.0247 70.9477H87.3295C87.0442 70.9477 86.8595 70.7631 86.8595 70.4777V69.991C86.8595 69.7056 87.0442 69.521 87.3295 69.521H89.0247C90.2164 69.521 91.1899 70.4777 91.1899 71.6862V75.5298C91.1899 75.8152 90.9885 75.9998 90.7032 75.9998H87.5981C86.4064 75.9998 85.4329 75.0431 85.4329 73.8346H85.4161ZM87.5813 74.5563H89.7465V73.0961H87.5813C87.1784 73.0961 86.8595 73.4318 86.8595 73.8178C86.8595 74.2039 87.1952 74.5395 87.5813 74.5395V74.5563Z" fill="#949CAA"></path><path d="M95.2517 69.5043H97.2994C97.5848 69.5043 97.7694 69.6889 97.7694 69.9742V70.461C97.7694 70.7463 97.5848 70.9309 97.2994 70.9309H95.2517C94.2614 70.9309 93.439 71.7366 93.439 72.7269C93.439 73.7172 94.2614 74.5396 95.2517 74.5396H97.2994C97.5848 74.5396 97.7694 74.7242 97.7694 75.0096V75.4963C97.7694 75.7817 97.5848 75.9663 97.2994 75.9663H95.2517C93.4558 75.9663 91.9955 74.506 91.9955 72.7101C91.9955 70.9142 93.4558 69.4707 95.2517 69.4707V69.5043Z" fill="#949CAA"></path><path d="M99.4143 67.3394C99.8675 67.3394 100.237 67.7086 100.237 68.145C100.237 68.5814 99.8675 68.9507 99.4143 68.9507C98.9611 68.9507 98.6086 68.5814 98.6086 68.145C98.6086 67.7086 98.9779 67.3394 99.4143 67.3394ZM99.1793 69.5046H99.6661C99.9514 69.5046 100.136 69.6892 100.136 69.9745V75.5134C100.136 75.7987 99.9514 75.9833 99.6661 75.9833H99.1793C98.894 75.9833 98.7094 75.7987 98.7094 75.5134V69.9745C98.7094 69.6892 98.894 69.5046 99.1793 69.5046Z" fill="#949CAA"></path><path d="M101.076 73.1131V72.3914C101.076 70.7969 102.368 69.5213 103.963 69.5213C105.557 69.5213 106.85 70.7969 106.85 72.3914V73.1131C106.85 74.7077 105.557 76.0001 103.963 76.0001C102.368 76.0001 101.076 74.7077 101.076 73.1131ZM103.963 74.5734C104.769 74.5734 105.423 73.9188 105.423 73.1131V72.3914C105.423 71.6025 104.769 70.9479 103.963 70.9479C103.157 70.9479 102.519 71.6025 102.519 72.3914V73.1131C102.519 73.9188 103.174 74.5734 103.963 74.5734ZM103.459 67.826L104.03 66.584C104.114 66.4329 104.282 66.3154 104.45 66.3154H105.138C105.675 66.3154 105.826 66.6176 105.541 67.0539L104.735 68.2624C104.651 68.3967 104.5 68.4638 104.332 68.4638H103.879C103.443 68.4638 103.275 68.1953 103.459 67.8093V67.826Z" fill="#949CAA"></path><path d="M107.823 75.5298V69.9909C107.823 69.7056 108.008 69.5209 108.293 69.5209H109.065C109.183 69.5209 109.25 69.6049 109.25 69.7056V69.8902C109.67 69.6552 110.173 69.5042 110.71 69.5042C112.305 69.5042 113.597 70.7798 113.597 72.3743V75.513C113.597 75.7983 113.413 75.9829 113.127 75.9829H112.624C112.338 75.9829 112.154 75.7983 112.154 75.513V72.3743C112.154 71.5854 111.499 70.9308 110.71 70.9308C109.921 70.9308 109.25 71.5854 109.25 72.3743V75.513C109.25 75.7983 109.065 75.9829 108.78 75.9829H108.293C108.008 75.9829 107.823 75.7983 107.823 75.513V75.5298Z" fill="#949CAA"></path><path d="M28.7014 69.2024C28.7014 68.85 28.8021 68.5143 28.9867 68.2289C29.1714 67.9268 29.4399 67.7086 29.8092 67.524C30.1616 67.3561 30.598 67.2722 31.0848 67.2722C31.5715 67.2722 31.9912 67.3561 32.3436 67.5408C32.6961 67.7254 32.9647 67.9604 33.1325 68.2457C33.3003 68.531 33.401 68.8332 33.401 69.1521C33.401 69.5885 33.2668 69.9577 32.9814 70.2766C32.6961 70.5955 32.2765 70.9144 31.7226 71.2501C31.9072 71.4851 32.0919 71.6865 32.2597 71.8879C32.4275 72.0894 32.5786 72.274 32.7297 72.4418C32.8807 72.6097 33.0318 72.7607 33.1493 72.8782C33.1996 72.7775 33.3003 72.5761 33.4178 72.274C33.5353 71.9719 33.6528 71.7704 33.7535 71.6362C33.8542 71.5019 34.0053 71.4348 34.2067 71.4348C34.3913 71.4348 34.5424 71.5019 34.6767 71.6362C34.8109 71.7704 34.8781 71.9215 34.8781 72.1061C34.8781 72.274 34.8109 72.509 34.6934 72.8279C34.576 73.13 34.4081 73.4825 34.1731 73.8517C34.3074 73.9692 34.5424 74.1538 34.8445 74.4056C35.1466 74.6574 35.348 74.8252 35.4152 74.9091C35.4823 74.9931 35.5159 75.1273 35.5159 75.2616C35.5159 75.463 35.4488 75.6309 35.2977 75.7651C35.1466 75.8994 34.9956 75.9666 34.8109 75.9666C34.6263 75.9666 34.4585 75.9162 34.2906 75.7987C34.1228 75.6812 33.7535 75.3959 33.2164 74.9595C32.9647 75.1945 32.7129 75.3791 32.4443 75.5302C32.1758 75.6812 31.8904 75.7987 31.5883 75.8659C31.2862 75.933 30.9337 75.9833 30.5645 75.9833C30.0777 75.9833 29.6581 75.9162 29.2721 75.7651C28.886 75.6309 28.5671 75.4295 28.3154 75.1945C28.0636 74.9595 27.879 74.6909 27.7447 74.4056C27.6272 74.1203 27.5601 73.8181 27.5601 73.516C27.5601 73.2139 27.6104 72.9621 27.6943 72.7272C27.7783 72.4922 27.9125 72.274 28.0804 72.0726C28.2482 71.8712 28.4496 71.6865 28.7014 71.5187C28.9532 71.3508 29.2217 71.1662 29.5574 71.0151C29.2721 70.6459 29.0539 70.327 28.9028 70.0416C28.7518 69.7563 28.6846 69.471 28.6846 69.1689L28.7014 69.2024ZM30.3295 71.9551C29.9434 72.1901 29.6413 72.4083 29.4567 72.6432C29.2553 72.8782 29.1714 73.1468 29.1714 73.4489C29.1714 73.6335 29.2049 73.8014 29.2721 73.9524C29.3392 74.1203 29.4399 74.2713 29.591 74.4056C29.7253 74.5399 29.8931 74.6574 30.0609 74.7245C30.2288 74.7916 30.4302 74.842 30.6316 74.842C30.833 74.842 31.0177 74.8084 31.2023 74.7581C31.3869 74.7077 31.5548 74.607 31.7226 74.4895C31.8904 74.372 32.0583 74.2378 32.2429 74.0699C31.9072 73.751 31.5883 73.4489 31.3198 73.13C31.0512 72.8279 30.7155 72.4418 30.3463 71.9719L30.3295 71.9551ZM30.9169 70.3773C31.303 70.1256 31.5883 69.9242 31.773 69.7395C31.9408 69.5717 32.0415 69.3703 32.0415 69.1185C32.0415 68.8667 31.9576 68.6821 31.773 68.5143C31.6051 68.3464 31.3701 68.2793 31.1184 68.2793C30.8666 68.2793 30.6316 68.3632 30.447 68.5311C30.2624 68.6989 30.1784 68.8835 30.1784 69.1185C30.1784 69.236 30.212 69.3535 30.2791 69.4878C30.3463 69.622 30.4302 69.7563 30.5309 69.8906C30.6316 70.0249 30.7659 70.1927 30.9169 70.3941V70.3773Z" fill="#949CAA"></path></svg>